<?xml version="1.0" encoding="UTF-8"?>
<svg id="Layer_1" data-name="Layer 1" xmlns="http://www.w3.org/2000/svg" viewBox="0 0 768 1152">
  <defs>
    <style>
      .cls-1 {
        fill: #d83200;
      }

      .cls-2 {
        fill: #fbf3e2;
      }

      .cls-3 {
        fill: #f9f2e1;
      }

      .cls-4 {
        fill: #f4ecda;
      }
    </style>
  </defs>
  <g>
    <path d="M768,0v1152H0V0h768ZM78.6,32.47c-15.16,1.63-30.19,14.53-31.37,30.13v1026.06c.83,16.74,15.78,29.87,31.87,31.87h609.05c13.94-1.18,31.29-14.23,32.63-28.87V61.09c-1.14-15.21-17.25-27.71-31.88-28.87l-610.31.25Z"/>
    <path class="cls-2" d="M78.6,32.47l610.31-.25c14.63,1.16,30.74,13.66,31.88,28.87v1030.56c-1.34,14.64-18.69,27.69-32.63,28.87H79.1c-16.09-2-31.04-15.12-31.88-31.87V62.6c1.19-15.59,16.22-28.5,31.38-30.13ZM87.6,51.22c-12.01.59-19.19,7.7-20.13,19.62v1009.56c.97,13.47,8.26,19.64,21.37,20.62h591.81c14.17-1.04,19.67-8.38,20.63-22.12V73.84c-.98-15.16-5.86-21.73-21.38-22.87l-592.3.25Z"/>
    <path class="cls-1" d="M87.6,51.22l592.3-.25c15.52,1.14,20.4,7.71,21.38,22.87v1005.07c-.96,13.74-6.46,21.08-20.63,22.12H88.85c-13.12-.99-20.4-7.16-21.38-20.62V70.85c.94-11.93,8.12-19.04,20.13-19.62ZM395.09,136.72c-25.08,2.43-42.41,20.86-44.13,45.87-2.38,34.63,1.6,72.31.37,107.13,5.58,64.93,99.96,62.34,104.69-3.57,2.38-33.21-1.83-69.26-.04-102.77-4.73-33.76-27.15-49.93-60.89-46.67ZM291,254.25v76.12c0,.49,2.41,2.42,3.39,2.61,4.33.83,21.33.5,26.27.05,7.94-.72,5.68-9.58,5.6-16.1-.12-10.6-.39-21.53-.81-32.28l-.32-143.66c-.69-1.25-1.69-1.37-2.97-1.53-3.06-.39-28.97-.25-30.4.42-.35.17-1.51,1.36-1.51,1.49v78.75l-1.12,1.12h-34.5l-1.68-80.07c-.24-.46-.49-1.05-.94-1.31-1.28-.75-26.41-.71-29.65-.37-1.12.12-2.25.24-3.18.93l-.96,3.92.05,185.26c.75,2.7,2.29,3.2,4.81,3.44,8.74.84,18.87-.7,27.78-.06,1.16.2,3.39-2.72,3.39-3.36v-75.38h36.75ZM465.38,171h25.5l1.12,1.12v158.25c0,.83,3.07,2.41,4.17,2.58,2.81.44,26.55.35,28.07-.35.39-.18,2.26-2.08,2.26-2.24v-158.25l1.12-1.12h24c.49,0,2.42-2.41,2.61-3.39.72-3.78.45-18.22.05-22.52-.22-2.4-.41-4.3-2.99-5.26l-83.72-.38c-1.67-.23-3.77.8-4.44,2.31-.71,1.62-.78,22.34-.35,25.06.19,1.2,1.54,3.87,2.58,4.17ZM559.42,385.57c-1.47-2.11-44.77-8.22-50.65-8.96-90.93-11.53-194.81-10.66-284.67,7.61-8.86,1.8-26.1,4.81-33.77,8.23-10.54,4.69-9.03,19.2,3.54,18.58,87.75-25.7,180.51-28.72,271.48-26.24,28.6.78,57.02,3.58,85.49,4.5,1.61.05,7.05.27,7.95-.37l.63-3.35Z"/>
    <path class="cls-4" d="M291,254.25h-36.75v75.38c0,.64-2.23,3.56-3.39,3.36-8.91-.64-19.04.9-27.78.06-2.52-.24-4.06-.74-4.81-3.44l-.05-185.26.96-3.92c.93-.69,2.06-.81,3.18-.93,3.24-.34,28.37-.39,29.65.37.45.26.7.85.94,1.31l1.68,80.07h34.5l1.12-1.12v-78.75c0-.13,1.16-1.32,1.51-1.49,1.43-.67,27.34-.82,30.4-.42,1.28.16,2.28.28,2.97,1.53l.32,143.66c.42,10.75.69,21.68.81,32.28.08,6.52,2.34,15.38-5.6,16.1-4.94.45-21.94.78-26.27-.05-.98-.19-3.39-2.12-3.39-2.61v-76.12Z"/>
    <path class="cls-4" d="M395.09,136.72c33.74-3.27,56.17,12.9,60.89,46.67-1.79,33.51,2.43,69.56.04,102.77-4.73,65.91-99.11,68.5-104.69,3.57,1.23-34.82-2.74-72.5-.37-107.13,1.72-25.02,19.04-43.45,44.13-45.87ZM401.08,168.94c-8.13.96-13.59,7.42-14.74,15.27,1.8,33.08-2.69,69.22-.11,101.94,1.76,22.36,26.54,24.75,33.59,5.03.09-32.71,3.07-68.52.97-101.09-.75-11.72-5.99-22.78-19.71-21.16Z"/>
    <path class="cls-4" d="M465.38,171c-1.04-.3-2.39-2.97-2.58-4.17-.43-2.72-.36-23.45.35-25.06.67-1.51,2.76-2.54,4.44-2.31l83.72.38c2.58.96,2.77,2.86,2.99,5.26.39,4.3.67,18.74-.05,22.52-.19.98-2.12,3.39-2.61,3.39h-24l-1.12,1.12v158.25c0,.16-1.88,2.06-2.26,2.24-1.52.69-25.26.79-28.07.35-1.1-.17-4.17-1.75-4.17-2.58v-158.25l-1.12-1.12h-25.5Z"/>
    <path class="cls-4" d="M559.42,385.57l-.63,3.35c-.9.64-6.35.42-7.95.37-28.48-.92-56.9-3.72-85.49-4.5-90.97-2.48-183.73.54-271.48,26.24-12.57.62-14.08-13.89-3.54-18.58,7.68-3.41,24.92-6.43,33.77-8.23,89.86-18.27,193.74-19.15,284.67-7.61,5.88.75,49.18,6.85,50.65,8.96Z"/>
    <path class="cls-1" d="M401.08,168.94c13.72-1.62,18.95,9.44,19.71,21.16,2.1,32.58-.88,68.39-.97,101.09-7.04,19.72-31.83,17.32-33.59-5.03-2.58-32.72,1.91-68.86.11-101.94,1.15-7.86,6.61-14.31,14.74-15.27Z"/>
  </g>
  <g id="layer1">
    <g id="g3328">
      <g id="g3278">
        <path id="path3124" class="cls-3" d="M386.09,750.06h-1.11c-11.18.11-22.47,2.76-32.92,7.74,0,0,1.61-.42,2.72-.42.15,0,.31,0,.42.04,1.07.19,2.11.73,2.95,1.38,1.23.92,1.65,2.72,2.99,3.52,1.07.65,2.41.77,3.68.8,2.68.15,5.32-.8,7.96-.96,2.72-.15,5.44-.23,8.12.15,3.94.57,7.89,1.61,11.56,3.18,4.33,1.84,8.38,4.4,12.17,7.16,3.75,2.72,7.01,6.01,10.34,9.23,4.82,4.63,8.69,10.26,13.9,14.44,2.14,1.72,4.33,3.18,7.04,4.29,3.87,1.61,12.21,2.76,12.21,2.76l3.48.88c1.8.31,3.45.73,4.9,1.23l.08.04c1.34.46,2.49,1.03,3.48,1.69-2.68-8.92-7.39-17.43-12.52-25.01-12.82-19.03-38.28-31.94-61.44-32.13h0Z"/>
        <path id="path3122" class="cls-3" d="M339.16,765.58c-6.89,5.09-13.09,11.37-18.18,18.84-7.81,11.41-13.44,25.39-13.44,39.33v64.72c0,1.42.8,2.14,1.8,2.14h19.64c-2.6-1.26-4.44-2.95-5.44-5.02-7.54-15.17,16.58-41.94,54.09-62.5,1.61-1.19,3.14-2.41,3.06-2.91-.08-.61-2.49.38-2.49.38-17.92,7.09-33.69,18.27-48.16,30.41,0,0-2.91-12.98-4.13-19.38-.77-3.94-1.76-7.85-2.11-11.87-.31-3.68,0-11.11,0-11.11,0,0,.19-7.47,1.3-11.11,1.19-3.83,5.59-10.99,5.59-10.99,0,0,3.6-5.06,6.39-7.85.73-.73,1.45-2.11,1.45-3.14,0-.88-.54-1.42-.77-2.26-.27-1.11-.54-2.45-.5-3.56.04-.88.19-1.61.57-2.37.34-.61.88-1.3,1.3-1.76h0Z"/>
        <path id="path3094" class="cls-3" d="M462.58,823.6c-5.82,14.48-25.53,34.16-54.09,49.48-16.5,8.85-31.47,14.48-44.14,17.5h96.47c1.19,0,1.8-.57,1.8-2.11-.04-19.34-.04-42.28-.04-64.88h0Z"/>
        <path id="path3096" class="cls-3" d="M440.15,822.14c-10.45,0-31.58,7.35-53.79,19.95-32.66,18.5-47.36,36.92-41.69,40.33,7.54,4.56,31.77,2.49,65.58-17.04,13.9-8,40.04-27.42,36.64-40.21-.57-2.03-2.95-2.99-6.74-3.03h0ZM389.81,844.89s7.35,14.06-4.02,22.67c-15.54,11.8-26.99-.77-26.99-.77,7.62-8.12,18.41-15.93,31.01-21.91Z"/>
      </g>
      <g id="g3261">
        <g id="text3143">
          <path id="path3167" class="cls-3" d="M335.94,998.72c1.74,0,3.05-.44,3.92-1.1s1.31-1.76,1.31-3.09v-.22c0-1.32-.44-2.21-1.31-3.09-.87-.66-2.18-1.1-4.14-1.1h-10.25v8.6h10.47ZM332.46,981.29c1.74,0,3.05-.22,3.92-.88.87-.66,1.31-1.76,1.31-3.09v-.22c0-1.32-.44-2.21-1.31-2.87s-2.18-1.1-3.71-1.1h-7.2v8.16h6.98ZM314.79,962.76h20.28c2.4,0,4.58.44,6.32,1.1,1.74.66,3.27,1.32,4.36,2.43.87.88,1.74,1.76,2.4,3.31.44,1.32.65,3.09.65,4.63v.44c0,2.65-1.09,4.85-2.18,6.4-1.09,1.76-2.83,1.76-4.58,2.65,3.27.44,6.98,3.31,8.5,5.07,1.53,1.76,2.18,4.19,2.18,7.28v.22c0,3.97-1.31,7.06-3.92,9.49-2.62,2.21-8.72,3.31-13.52,3.31h-20.5v-46.33h0Z"/>
          <path id="path3169" class="cls-3" d="M357.09,962.76h34.67v9.71h-23.55v8.6h20.06v9.04h-20.06v9.27h23.98v9.93h-35.1v-46.55Z"/>
          <path id="path3171" class="cls-3" d="M397,962.76h11.99v36.62h20.93v9.71h-32.71v-46.33h-.22Z"/>
          <path id="path3187" class="cls-3" d="M434.5,962.76h11.99v36.62h20.93v9.71h-32.71v-46.33h-.22Z"/>
        </g>
        <g id="g3255">
          <path id="path3157" class="cls-3" d="M314.5,918.23h-13.86v-9.65h39.89v9.65h-14.24v36.8h-11.79v-36.8Z"/>
          <path id="path3159" class="cls-3" d="M361.67,938.87l-5.67-15.89-6.05,15.89h11.71,0ZM351.72,908.39h9.57l18.91,46.65h-12.44l-2.68-6.86h-18.3l-2.83,6.86h-11.48l19.26-46.65Z"/>
          <path id="path3163" class="cls-3" d="M445.24,907.77c-3.22.11-6.78.96-9.49,2.14-2.91,1.26-5.28,2.83-7.39,5.02-2.14,2.18-3.25,4.6-4.44,7.54-1.19,2.95-1.53,6.05-1.53,9.34v.15c0,3.29.31,6.4,1.53,9.31,1.19,2.91,2.83,5.44,4.94,7.62s4.59,3.87,7.5,5.13c2.91,1.26,6.05,1.88,9.42,1.88s6.55-.61,9.42-1.88c2.91-1.26,5.4-2.99,7.54-5.17s3.79-4.75,5.02-7.66c1.19-2.95,1.45-6.05,1.45-9.38v-.11c0-3.29-.27-6.4-1.45-9.31s-2.83-5.44-4.94-7.62c-2.11-2.14-4.59-3.87-7.47-5.13-2.91-1.26-6.05-1.88-9.46-1.88h-.65,0ZM445.74,917.96c1.8,0,3.45.38,4.94,1.15s2.76,1.8,3.83,3.06,1.91,2.76,2.49,4.4c.57,1.69.88,3.45.88,5.29v.15c0,1.88-.31,3.64-.88,5.29-.57,1.69-1.38,3.14-2.41,4.4s-2.3,2.26-3.79,2.99c-1.49.73-3.1,1.11-4.9,1.11s-3.45-.38-4.94-1.15-2.76-1.8-3.79-3.06c-1.07-1.26-1.88-2.76-2.45-4.4-.57-1.69-.88-3.45-.88-5.32v-.15c0-1.88.27-3.64.84-5.29.57-1.69,1.38-3.14,2.41-4.4,1.07-1.26,2.34-2.26,3.79-2.99,1.45-.73,3.06-1.07,4.86-1.07h0Z"/>
          <path id="path3189" class="cls-3" d="M378.36,931.94c0-5.94,1.53-12.52,5.59-16.85,4.44-4.71,11.52-7.28,17.99-7.28,12.67,0,18.49,8.77,18.49,8.77l-9,6.51s-2.41-2.76-3.98-3.6c-1.61-.84-3.48-1.53-5.28-1.34-3.37.31-6.97,1.8-9.19,4.33-2.11,2.37-3.1,5.9-2.99,9.08.19,4.25,1.8,8.96,5.02,11.8,1.76,1.57,4.82,1.95,6.85,1.95,3.02,0,4.63-.57,6.7-1.61,1.38-.69,3.6-2.99,3.6-2.99l9.42,6.78s-7.04,8.39-19.37,8.39c-5.4,0-11.29-1.3-15.08-4.48-5.59-4.79-8.77-8.62-8.77-19.46h0Z"/>
        </g>
        <g id="g3217">
          <g id="text3219">
            <path id="path3231" class="cls-3" d="M471.33,999.78h-1.67v-.5h3.95v.53h-1.67v4.5h-.57v-4.52h-.02Z"/>
            <path id="path3233" class="cls-3" d="M473.89,999.27h.57l1.84,2.75,1.84-2.75h.57v5.03h-.57v-4.07l-1.84,2.68h-.02l-1.84-2.68v4.07h-.55v-5.03Z"/>
          </g>
        </g>
      </g>
    </g>
  </g>
  <path class="cls-4" d="M451.18,748.35c-.84-.79-1.73-2.65-1.77-3.84,3.29-12.21,7.32-38.79-1.07-49.03-4.8-5.85-9.52-3.1-15.63-3.06-45.63.29-94.18.21-139.92-4.41-57.3-5.78-93.54-15.64-109.34-76.11-9.64-36.92-17.7-110.1-5.67-145.82,17.92-53.18,80.37-54.06,127-56.96,68.7-4.28,143.08-4.99,211.59,2.22,58.19,6.12,85.4,23.26,93.01,84.21,5.05,40.43,2.33,114.01-19.79,149.03-22.86,36.2-60.04,39.38-99.03,45.3-3.47,14.11-8.73,28.61-16.87,40.71-2.56,3.81-10.58,14.16-13.84,16.82-2.36,1.93-6.18,3.27-8.69.93Z"/>
  <path class="cls-1" d="M211.14,450.39c0-.74.17-1.33.53-1.76.35-.43.85-.65,1.51-.65h12.36c.7,0,1.21.22,1.54.65.33.43.49,1.02.49,1.76v80.74c0,1.57-.68,2.35-2.04,2.35h-12.36c-1.36,0-2.04-.78-2.04-2.35v-80.74Z"/>
  <path class="cls-1" d="M355.8,507.5c0-1.07.13-1.83.4-2.29.27-.45.83-.68,1.7-.68h11.24c.86,0,1.43.19,1.7.56.27.37.4,1.03.4,1.98v2.78c0,1.57.22,2.86.65,3.89.43,1.03.99,1.86,1.67,2.5.68.64,1.44,1.09,2.29,1.36.84.27,1.66.4,2.44.4.99,0,1.9-.17,2.75-.53.84-.35,1.59-.84,2.22-1.48s1.14-1.41,1.51-2.32c.37-.91.56-1.92.56-3.03,0-1.48-.21-2.81-.62-3.98-.41-1.17-1.06-2.32-1.95-3.43-.89-1.11-2.01-2.25-3.37-3.43s-2.99-2.54-4.88-4.11c-3.21-2.64-6-4.95-8.37-6.95-2.37-2-4.31-4.02-5.84-6.05-1.52-2.04-2.66-4.28-3.4-6.73-.74-2.45-1.11-5.45-1.11-8.99,0-2.68.34-5.09,1.02-7.23s1.6-4.04,2.75-5.68c1.15-1.65,2.47-3.05,3.95-4.2s3.04-2.11,4.66-2.87c1.63-.76,3.26-1.32,4.91-1.67,1.65-.35,3.19-.53,4.63-.53,3.21,0,6.16.54,8.83,1.61,2.68,1.07,4.98,2.58,6.92,4.54,1.94,1.96,3.45,4.32,4.54,7.1,1.09,2.78,1.64,5.88,1.64,9.3v3.52c0,.86-.15,1.47-.46,1.82-.31.35-.96.53-1.95.53h-11.06c-.78,0-1.28-.17-1.48-.53-.21-.35-.31-.96-.31-1.82v-3.46c0-1.07-.14-2.08-.43-3.03-.29-.95-.71-1.77-1.27-2.47s-1.25-1.26-2.07-1.67c-.82-.41-1.79-.62-2.9-.62-.78,0-1.57.14-2.35.43-.78.29-1.49.74-2.13,1.36-.64.62-1.16,1.42-1.58,2.41-.41.99-.62,2.18-.62,3.58,0,1.48.22,2.78.65,3.89s1.05,2.15,1.85,3.12c.8.97,1.77,1.91,2.9,2.81,1.13.91,2.38,1.9,3.74,2.97,2.88,2.22,5.59,4.38,8.12,6.46,2.53,2.08,4.74,4.31,6.61,6.7,1.87,2.39,3.35,5.03,4.42,7.94,1.07,2.9,1.61,6.31,1.61,10.22,0,2.88-.55,5.62-1.64,8.22-1.09,2.59-2.64,4.87-4.63,6.83-2,1.96-4.4,3.51-7.2,4.66-2.8,1.15-5.91,1.73-9.33,1.73-3.71,0-6.96-.61-9.76-1.82-2.8-1.21-5.14-2.85-7.01-4.91-1.87-2.06-3.27-4.42-4.2-7.07s-1.39-5.45-1.39-8.37v-3.27Z"/>
  <path class="cls-1" d="M284.33,447.98l13.4,45.27,13.42-45.27h20.12l1.26,1.26v82.14c0,.15-1.95,2.1-2.1,2.1h-12.57c-4.14-3.97-1.32-9.95-1.22-14.63.28-13.83-.27-27.7-.04-41.52l-12.55,40.66c-3.35.36-10.94,1.68-12.97-1.31l-10.52-38.52c-2.99-.5-.83.42-.83,1.26v52.81l-1.26,1.26h-12.57c-.28,0-1.27-1.11-2.1-.84v-82.56c0-.28,1.11-1.27.84-2.1h19.7Z"/>
  <path class="cls-1" d="M237.46,451.22c6.18-6.82,17.17-2.06,17.85,6.73.59,7.68-7.11,29.36-18.07,22.01,1.45-2.54,6.05-11.62,4.4-13.93-.5-.69-2.55-.85-3.66-1.91-2.94-2.81-3.25-9.87-.51-12.89Z"/>
  <path class="cls-1" d="M491.47,512.4c.31.85.77,1.61,1.35,2.28.59.67,1.3,1.21,2.14,1.6.84.4,1.8.59,2.9.59s2.13-.2,2.99-.59c.86-.39,1.57-.93,2.14-1.6.57-.67.99-1.43,1.26-2.28.27-.85.41-1.75.41-2.7v-7.05c0-.91.14-1.52.41-1.84.27-.32.77-.47,1.48-.47h11.77c.71,0,1.24.14,1.57.41.34.28.5.87.5,1.78v8.06c0,3.2-.59,6.07-1.76,8.62-1.17,2.55-2.79,4.71-4.85,6.49-2.06,1.78-4.46,3.13-7.21,4.06s-5.69,1.39-8.84,1.39-6.15-.46-9-1.39c-2.85-.93-5.35-2.28-7.49-4.06s-3.84-3.94-5.1-6.49c-1.26-2.55-1.89-5.42-1.89-8.62v-43.44c0-2.92.58-5.64,1.73-8.15,1.15-2.51,2.77-4.68,4.85-6.52s4.55-3.28,7.43-4.33c2.87-1.05,6.03-1.57,9.47-1.57,3.82,0,7.13.6,9.94,1.81,2.81,1.21,5.13,2.79,6.95,4.74s3.18,4.18,4.06,6.67,1.32,5.04,1.32,7.64v5.75c0,.91-.13,1.57-.38,1.99s-.8.62-1.64.62h-11.71c-.76,0-1.27-.19-1.54-.56-.27-.38-.41-.98-.41-1.81v-5.51c0-.87-.15-1.73-.44-2.58-.29-.85-.71-1.61-1.26-2.28-.55-.67-1.22-1.21-2.01-1.63-.8-.41-1.72-.62-2.77-.62s-1.94.19-2.8.56c-.86.38-1.58.89-2.17,1.54-.59.65-1.05,1.39-1.38,2.22-.34.83-.5,1.72-.5,2.67v41.9c0,.95.16,1.85.47,2.7Z"/>
  <path class="cls-1" d="M541.21,448.03c1.28.88,1.79,1.97,2.41,3.27,4.26,8.87,5.5,20.33,10.09,29.26l10.27-31.86c2.83-.88,16.63-1.82,17.19,1.15l-19,47.67v31.84l-1.22.92-16.42.12v-30.81l-19.7-47.94c-.55-.93-.02-3.64.95-3.64h15.44Z"/>
  <g>
    <path class="cls-1" d="M406.2,532.38c-.96,0-2.1-.45-2.1-2.59v-80.55c0-.79.18-1.43.54-1.91.37-.5.9-.75,1.56-.75h19.18c2.81,0,5.46.59,7.88,1.75,2.41,1.16,4.53,2.77,6.3,4.78,1.77,2.01,3.17,4.4,4.18,7.1,1,2.71,1.51,5.65,1.51,8.75v19.72c0,3.09-.51,6.05-1.51,8.78-1,2.73-2.41,5.14-4.17,7.17-1.77,2.03-3.89,3.66-6.3,4.84-2.41,1.18-5.06,1.78-7.88,1.78h-6.33v18.55c0,2.14-1.11,2.59-2.04,2.59h-10.81ZM424.29,495.88c1.8,0,3.25-.67,4.31-2,1.08-1.34,1.63-3.06,1.63-5.08v-19.54c0-2.15-.56-3.91-1.65-5.23-1.09-1.31-2.55-1.97-4.34-1.97h-5.18v33.83h5.24Z"/>
    <path class="cls-1" d="M425.38,446.83c2.79,0,5.38.58,7.77,1.73,2.39,1.15,4.46,2.72,6.22,4.71,1.76,1.99,3.13,4.34,4.13,7.03,1,2.69,1.49,5.58,1.49,8.66v19.72c0,3.08-.5,5.98-1.49,8.69-1,2.71-2.37,5.07-4.13,7.09-1.76,2.01-3.83,3.61-6.22,4.78-2.39,1.17-4.98,1.76-7.77,1.76h-6.58v18.8c0,1.56-.6,2.34-1.79,2.34h-10.81c-1.23,0-1.85-.78-1.85-2.34v-80.55c0-.74.16-1.33.49-1.76.33-.43.78-.65,1.36-.65h19.18M418.81,496.14h5.49c1.88,0,3.39-.7,4.51-2.1,1.12-1.4,1.68-3.14,1.68-5.24v-19.54c0-2.22-.57-4.02-1.71-5.39-1.14-1.38-2.65-2.06-4.54-2.06h-5.43v34.33M425.38,446.33h-19.18c-.73,0-1.34.29-1.76.84-.39.52-.59,1.21-.59,2.06v80.55c0,2.47,1.47,2.84,2.35,2.84h10.81c.86,0,2.29-.37,2.29-2.84v-18.3h6.08c2.85,0,5.54-.61,7.99-1.81,2.44-1.19,4.58-2.84,6.38-4.9,1.79-2.05,3.21-4.49,4.22-7.24,1.01-2.76,1.53-5.74,1.53-8.86v-19.72c0-3.12-.51-6.1-1.53-8.83-1.01-2.73-2.43-5.15-4.22-7.18-1.79-2.03-3.94-3.66-6.38-4.83-2.45-1.18-5.13-1.78-7.99-1.78h0ZM419.31,462.31h4.93c1.74,0,3.1.62,4.15,1.88,1.06,1.28,1.6,2.99,1.6,5.07v19.54c0,1.97-.53,3.63-1.57,4.93-1.03,1.28-2.38,1.91-4.12,1.91h-4.99v-33.33h0Z"/>
  </g>
  <path class="cls-1" d="M449.97,448.19c0-.74.17-1.33.53-1.76.35-.43.85-.65,1.51-.65h12.36c.7,0,1.21.22,1.54.65.33.43.49,1.02.49,1.76v80.74c0,1.57-.68,2.35-2.04,2.35h-12.36c-1.36,0-2.04-.78-2.04-2.35v-80.74Z"/>
  <path class="cls-1" d="M202.85,554.88c0-.58.14-1.04.42-1.38s.67-.51,1.16-.51h16.12c2.42.03,4.65.42,6.71,1.16,2.06.74,3.85,1.84,5.37,3.28,1.52,1.45,2.71,3.24,3.58,5.36.87,2.12,1.3,4.57,1.3,7.34v32.55c0,2.77-.43,5.22-1.3,7.34-.87,2.12-2.06,3.91-3.58,5.36-1.52,1.45-3.31,2.54-5.37,3.28-2.06.74-4.27,1.13-6.62,1.16h-16.22c-1.05,0-1.58-.61-1.58-1.84v-63.12ZM215.21,564.73v43.46h4.83c.77-.03,1.48-.2,2.11-.51.63-.31,1.17-.72,1.6-1.26.43-.53.77-1.14,1.02-1.84.25-.69.37-1.46.37-2.29v-31.63c0-2.03-.5-3.53-1.49-4.49-.99-.97-2.28-1.45-3.86-1.45h-4.6Z"/>
  <path class="cls-1" d="M371.55,553.04l6.7,40.73,7.62-40.77,10.63.42c3.12,12.58,3.92,26.2,6.92,38.75.27,1.11-.63,1.91,1.29,1.59l6.7-40.72h10.2c.19,0,1.58,1.33,1.3,2.01l-11.95,63.87c-.85,1.66-7.81,1.35-9.8,1.15-1.58-.16-2.68,0-3.32-1.83l-6.85-38.93-7.03,39.4-.93,1.01c-2.14.29-10.74.98-11.81-.33l-11.79-66.35h12.12Z"/>
  <path class="cls-1" d="M255.61,580.34h14.36c.1,0,1.35,1.3,1.35,1.4v9.49l-.81.84h-14.09c-.77.49-.75,1.11-.84,1.92-.51,4.48.61,9.68.03,14.26h17.88c.45,2.72,1.8,10.5-1.06,11.47-8.45-.1-17.99.99-26.33.27-3.03-.26-3.27-.53-3.52-3.63-1.55-19.12,1.23-40.41,0-59.76.01-1.42.28-3.33,1.92-3.6l27.9.29c.26.12,1.09,1.01,1.09,1.11v9.49c0,2.12-4.17.83-5.13.81-3.2-.06-7.88-.36-10.89,0-.79.1-1.39.07-1.87.87v14.79Z"/>
  <path class="cls-1" d="M487.59,554.89c0-.58.12-1.04.37-1.38.25-.34.64-.51,1.17-.51h9.35c.53,0,.92.17,1.17.51.25.34.37.8.37,1.38v25.07h10.29v-25.07c0-.52.13-.96.4-1.34.26-.37.66-.56,1.19-.56h9.31c.41,0,.76.13,1.08.39.31.26.47.75.47,1.46v63.54c0,.58-.13,1.04-.37,1.36-.25.32-.69.49-1.31.49h-9.16c-1.06,0-1.59-.62-1.59-1.85v-26.72h-10.29v26.72c0,1.23-.51,1.85-1.54,1.85h-9.35c-1.03,0-1.54-.62-1.54-1.85v-63.49Z"/>
  <path class="cls-1" d="M470.12,564.27l-.04,53.05c.81,4.13-10.52,2.95-11.34,1.97l-.71-3.12.57-51.89c-3.92-.92-9.1,1.92-12.1-.89v-9.49l.86-.89h32.83c.1,0,1.44,1.38,1.44,1.48v8.9l-.86.89h-10.66Z"/>
  <path class="cls-1" d="M430.81,620.06c-.58-.18-1.34-1.84-1.36-2.56-.08-2.57.56-6.26.53-9.27-.18-17.4-1.03-34.88-.59-52.37.49-3.87,10.71-3.44,11.78-.87.14,19.29.45,38.81-.08,58.13-.05,1.7.94,3.31.08,5.21-.13.29-1.59,1.74-1.72,1.74-1.9,0-7.36.39-8.64,0Z"/>
  <g>
    <path class="cls-1" d="M308.42,620.33c-.38,0-.71-.27-.78-.63l-2.74-13.63h-12.48l-2.74,13.63c-.07.37-.4.63-.78.63h-9.15c-.24,0-.47-.11-.62-.3-.15-.19-.21-.43-.15-.67l15.08-65.81c.08-.36.4-.62.77-.62h7.66c.37,0,.69.25.77.61l15.08,65.81c.05.24,0,.48-.15.67-.15.19-.38.3-.62.3h-9.15ZM302.88,596.12l-4.27-21.47-4.27,21.47h8.54Z"/>
    <path class="cls-1" d="M302.48,553.45c.14,0,.26.09.29.23l15.08,65.8c.04.18-.1.35-.29.35h-9.15c-.14,0-.26-.1-.29-.23l-2.78-13.8c-.03-.14-.15-.23-.29-.23h-12.81c-.14,0-.26.1-.29.23l-2.78,13.8c-.03.14-.15.23-.29.23h-9.15c-.19,0-.33-.17-.29-.35l15.08-65.8c.03-.13.15-.23.29-.23h7.66M293.73,596.62h9.76l-4.78-24.05h-.19l-4.78,24.05M302.48,552.45h-7.66c-.61,0-1.13.41-1.26,1l-15.08,65.8c-.09.38,0,.78.25,1.09.25.31.62.49,1.01.49h9.15c.61,0,1.15-.44,1.27-1.04l2.66-13.23h11.66l2.66,13.23c.12.6.65,1.04,1.27,1.04h9.15c.4,0,.77-.18,1.01-.49.25-.31.34-.71.25-1.09l-15.08-65.8c-.14-.59-.65-1-1.26-1h0ZM294.95,595.62l3.66-18.41,3.66,18.41h-7.32Z"/>
  </g>
  <path class="cls-1" d="M335.46,608.69h16.99c2.07,1.47,2.13,10,.16,10.86-8.07.14-17.56,1.15-25.53.42-1.28-.12-2.51-.14-3.44-1.21l.02-64.57c.13-.28,1.04-1.19,1.14-1.19h9.22l.77.99c1.32,18.11.4,36.48.67,54.7Z"/>
  <path class="cls-1" d="M581.1,566.41l-.04,50.64c.76,3.95-9.88,2.82-10.66,1.88l-.66-2.98.53-49.54c-3.69-.88-8.56,1.83-11.37-.85v-9.06l.81-.85h30.85c.1,0,1.35,1.32,1.35,1.42v8.49l-.81.85h-10.01Z"/>
  <path class="cls-1" d="M544.16,620.06c-.54-.17-1.26-1.8-1.28-2.52-.07-2.53.52-6.16.49-9.11-.17-17.1-.97-34.29-.55-51.49.46-3.81,10.06-3.38,11.07-.85.13,18.96.42,38.16-.07,57.14-.04,1.67.88,3.26.08,5.12-.12.29-1.5,1.71-1.61,1.71-1.78,0-6.92.39-8.12,0Z"/>
</svg>