<?xml version="1.0" encoding="UTF-8"?>
<svg id="Layer_1" data-name="Layer 1" xmlns="http://www.w3.org/2000/svg" viewBox="0 0 768 1152">
  <defs>
    <style>
      .cls-1 {
        fill: #d83200;
      }

      .cls-2 {
        fill: #fbf3e2;
      }

      .cls-3 {
        fill: #f9f2e1;
      }

      .cls-4 {
        fill: #f4ecda;
      }
    </style>
  </defs>
  <g>
    <path d="M768,0v1152H0V0h768ZM78.6,32.47c-15.16,1.63-30.19,14.53-31.37,30.13v1026.06c.83,16.74,15.78,29.87,31.87,31.87h609.05c13.94-1.18,31.29-14.23,32.63-28.87V61.09c-1.14-15.21-17.25-27.71-31.88-28.87l-610.31.25Z"/>
    <path class="cls-2" d="M78.6,32.47l610.31-.25c14.63,1.16,30.74,13.66,31.88,28.87v1030.56c-1.34,14.64-18.69,27.69-32.63,28.87H79.1c-16.09-2-31.04-15.12-31.88-31.87V62.6c1.19-15.59,16.22-28.5,31.38-30.13ZM87.6,51.22c-12.01.59-19.19,7.7-20.13,19.62v1009.56c.97,13.47,8.26,19.64,21.37,20.62h591.81c14.17-1.04,19.67-8.38,20.63-22.12V73.84c-.98-15.16-5.86-21.73-21.38-22.87l-592.3.25Z"/>
    <path class="cls-1" d="M87.6,51.22l592.3-.25c15.52,1.14,20.4,7.71,21.38,22.87v1005.07c-.96,13.74-6.46,21.08-20.63,22.12H88.85c-13.12-.99-20.4-7.16-21.38-20.62V70.85c.94-11.93,8.12-19.04,20.13-19.62ZM395.09,136.72c-25.08,2.43-42.41,20.86-44.13,45.87-2.38,34.63,1.6,72.31.37,107.13,5.58,64.93,99.96,62.34,104.69-3.57,2.38-33.21-1.83-69.26-.04-102.77-4.73-33.76-27.15-49.93-60.89-46.67ZM291,254.25v76.12c0,.49,2.41,2.42,3.39,2.61,4.33.83,21.33.5,26.27.05,7.94-.72,5.68-9.58,5.6-16.1-.12-10.6-.39-21.53-.81-32.28l-.32-143.66c-.69-1.25-1.69-1.37-2.97-1.53-3.06-.39-28.97-.25-30.4.42-.35.17-1.51,1.36-1.51,1.49v78.75l-1.12,1.12h-34.5l-1.68-80.07c-.24-.46-.49-1.05-.94-1.31-1.28-.75-26.41-.71-29.65-.37-1.12.12-2.25.24-3.18.93l-.96,3.92.05,185.26c.75,2.7,2.29,3.2,4.81,3.44,8.74.84,18.87-.7,27.78-.06,1.16.2,3.39-2.72,3.39-3.36v-75.38h36.75ZM465.38,171h25.5l1.12,1.12v158.25c0,.83,3.07,2.41,4.17,2.58,2.81.44,26.55.35,28.07-.35.39-.18,2.26-2.08,2.26-2.24v-158.25l1.12-1.12h24c.49,0,2.42-2.41,2.61-3.39.72-3.78.45-18.22.05-22.52-.22-2.4-.41-4.3-2.99-5.26l-83.72-.38c-1.67-.23-3.77.8-4.44,2.31-.71,1.62-.78,22.34-.35,25.06.19,1.2,1.54,3.87,2.58,4.17ZM559.42,385.57c-1.47-2.11-44.77-8.22-50.65-8.96-90.93-11.53-194.81-10.66-284.67,7.61-8.86,1.8-26.1,4.81-33.77,8.23-10.54,4.69-9.03,19.2,3.54,18.58,87.75-25.7,180.51-28.72,271.48-26.24,28.6.78,57.02,3.58,85.49,4.5,1.61.05,7.05.27,7.95-.37l.63-3.35ZM441.54,684.96c5.33,5.44,4.87,26.34,3.75,33.71-.86,5.66-6.43,17.88-2.81,21.97,4.57,5.17,11.26-4.65,14.25-8.28,11.81-14.35,19.96-31.58,24.76-49.49,11.69-2.14,23.81-2.17,35.41-5.09,42.76-10.75,60.69-33.13,67.22-76.03,5.08-33.35,6.31-99.18-13.07-127.68-22.67-33.33-86.61-32.25-122.92-33.83-49.32-2.14-99.97-2.41-149.25,1.51-34.85,2.77-85.55,8.09-105.69,40.56-22.73,36.64-14.11,116.63,5.92,153.71,22.1,40.9,68.68,46.73,110.97,48.01,33.28,1,68.03,1.35,101.33.76,7.18-.13,18.83-2.15,25.45-1.53,1.28.12,3.85.84,4.69,1.7Z"/>
    <path class="cls-4" d="M441.54,684.96c-.84-.86-3.41-1.58-4.69-1.7-6.61-.62-18.26,1.4-25.45,1.53-33.3.59-68.05.24-101.33-.76-42.29-1.28-88.87-7.1-110.97-48.01-20.03-37.08-28.66-117.07-5.92-153.71,20.15-32.47,70.85-37.78,105.69-40.56,49.29-3.92,99.93-3.66,149.25-1.51,36.32,1.58,100.26.5,122.92,33.83,19.38,28.5,18.15,94.33,13.07,127.68-6.53,42.9-24.46,65.28-67.22,76.03-11.61,2.92-23.72,2.95-35.41,5.09-4.8,17.91-12.95,35.14-24.76,49.49-2.99,3.64-9.68,13.45-14.25,8.28-3.62-4.1,1.95-16.31,2.81-21.97,1.13-7.37,1.58-28.27-3.75-33.71Z"/>
    <path class="cls-4" d="M291,254.25h-36.75v75.38c0,.64-2.23,3.56-3.39,3.36-8.91-.64-19.04.9-27.78.06-2.52-.24-4.06-.74-4.81-3.44l-.05-185.26.96-3.92c.93-.69,2.06-.81,3.18-.93,3.24-.34,28.37-.39,29.65.37.45.26.7.85.94,1.31l1.68,80.07h34.5l1.12-1.12v-78.75c0-.13,1.16-1.32,1.51-1.49,1.43-.67,27.34-.82,30.4-.42,1.28.16,2.28.28,2.97,1.53l.32,143.66c.42,10.75.69,21.68.81,32.28.08,6.52,2.34,15.38-5.6,16.1-4.94.45-21.94.78-26.27-.05-.98-.19-3.39-2.12-3.39-2.61v-76.12Z"/>
    <path class="cls-4" d="M395.09,136.72c33.74-3.27,56.17,12.9,60.89,46.67-1.79,33.51,2.43,69.56.04,102.77-4.73,65.91-99.11,68.5-104.69,3.57,1.23-34.82-2.74-72.5-.37-107.13,1.72-25.02,19.04-43.45,44.13-45.87ZM401.08,168.94c-8.13.96-13.59,7.42-14.74,15.27,1.8,33.08-2.69,69.22-.11,101.94,1.76,22.36,26.54,24.75,33.59,5.03.09-32.71,3.07-68.52.97-101.09-.75-11.72-5.99-22.78-19.71-21.16Z"/>
    <path class="cls-4" d="M465.38,171c-1.04-.3-2.39-2.97-2.58-4.17-.43-2.72-.36-23.45.35-25.06.67-1.51,2.76-2.54,4.44-2.31l83.72.38c2.58.96,2.77,2.86,2.99,5.26.39,4.3.67,18.74-.05,22.52-.19.98-2.12,3.39-2.61,3.39h-24l-1.12,1.12v158.25c0,.16-1.88,2.06-2.26,2.24-1.52.69-25.26.79-28.07.35-1.1-.17-4.17-1.75-4.17-2.58v-158.25l-1.12-1.12h-25.5Z"/>
    <path class="cls-4" d="M559.42,385.57l-.63,3.35c-.9.64-6.35.42-7.95.37-28.48-.92-56.9-3.72-85.49-4.5-90.97-2.48-183.73.54-271.48,26.24-12.57.62-14.08-13.89-3.54-18.58,7.68-3.41,24.92-6.43,33.77-8.23,89.86-18.27,193.74-19.15,284.67-7.61,5.88.75,49.18,6.85,50.65,8.96Z"/>
    <path class="cls-1" d="M401.08,168.94c13.72-1.62,18.95,9.44,19.71,21.16,2.1,32.58-.88,68.39-.97,101.09-7.04,19.72-31.83,17.32-33.59-5.03-2.58-32.72,1.91-68.86.11-101.94,1.15-7.86,6.61-14.31,14.74-15.27Z"/>
  </g>
  <g id="layer1">
    <g id="g3328">
      <g id="g3278">
        <path id="path3124" class="cls-3" d="M386.09,750.06h-1.11c-11.18.11-22.47,2.76-32.92,7.74,0,0,1.61-.42,2.72-.42.15,0,.31,0,.42.04,1.07.19,2.11.73,2.95,1.38,1.23.92,1.65,2.72,2.99,3.52,1.07.65,2.41.77,3.68.8,2.68.15,5.32-.8,7.96-.96,2.72-.15,5.44-.23,8.12.15,3.94.57,7.89,1.61,11.56,3.18,4.33,1.84,8.38,4.4,12.17,7.16,3.75,2.72,7.01,6.01,10.34,9.23,4.82,4.63,8.69,10.26,13.9,14.44,2.14,1.72,4.33,3.18,7.04,4.29,3.87,1.61,12.21,2.76,12.21,2.76l3.48.88c1.8.31,3.45.73,4.9,1.23l.08.04c1.34.46,2.49,1.03,3.48,1.69-2.68-8.92-7.39-17.43-12.52-25.01-12.82-19.03-38.28-31.94-61.44-32.13h0Z"/>
        <path id="path3122" class="cls-3" d="M339.16,765.58c-6.89,5.09-13.09,11.37-18.18,18.84-7.81,11.41-13.44,25.39-13.44,39.33v64.72c0,1.42.8,2.14,1.8,2.14h19.64c-2.6-1.26-4.44-2.95-5.44-5.02-7.54-15.17,16.58-41.94,54.09-62.5,1.61-1.19,3.14-2.41,3.06-2.91-.08-.61-2.49.38-2.49.38-17.92,7.09-33.69,18.27-48.16,30.41,0,0-2.91-12.98-4.13-19.38-.77-3.94-1.76-7.85-2.11-11.87-.31-3.68,0-11.11,0-11.11,0,0,.19-7.47,1.3-11.11,1.19-3.83,5.59-10.99,5.59-10.99,0,0,3.6-5.06,6.39-7.85.73-.73,1.45-2.11,1.45-3.14,0-.88-.54-1.42-.77-2.26-.27-1.11-.54-2.45-.5-3.56.04-.88.19-1.61.57-2.37.34-.61.88-1.3,1.3-1.76h0Z"/>
        <path id="path3094" class="cls-3" d="M462.58,823.6c-5.82,14.48-25.53,34.16-54.09,49.48-16.5,8.85-31.47,14.48-44.14,17.5h96.47c1.19,0,1.8-.57,1.8-2.11-.04-19.34-.04-42.28-.04-64.88h0Z"/>
        <path id="path3096" class="cls-3" d="M440.15,822.14c-10.45,0-31.58,7.35-53.79,19.95-32.66,18.5-47.36,36.92-41.69,40.33,7.54,4.56,31.77,2.49,65.58-17.04,13.9-8,40.04-27.42,36.64-40.21-.57-2.03-2.95-2.99-6.74-3.03h0ZM389.81,844.89s7.35,14.06-4.02,22.67c-15.54,11.8-26.99-.77-26.99-.77,7.62-8.12,18.41-15.93,31.01-21.91Z"/>
      </g>
      <g id="g3261">
        <g id="text3143">
          <path id="path3167" class="cls-3" d="M335.94,998.72c1.74,0,3.05-.44,3.92-1.1s1.31-1.76,1.31-3.09v-.22c0-1.32-.44-2.21-1.31-3.09-.87-.66-2.18-1.1-4.14-1.1h-10.25v8.6h10.47ZM332.46,981.29c1.74,0,3.05-.22,3.92-.88.87-.66,1.31-1.76,1.31-3.09v-.22c0-1.32-.44-2.21-1.31-2.87s-2.18-1.1-3.71-1.1h-7.2v8.16h6.98ZM314.79,962.76h20.28c2.4,0,4.58.44,6.32,1.1,1.74.66,3.27,1.32,4.36,2.43.87.88,1.74,1.76,2.4,3.31.44,1.32.65,3.09.65,4.63v.44c0,2.65-1.09,4.85-2.18,6.4-1.09,1.76-2.83,1.76-4.58,2.65,3.27.44,6.98,3.31,8.5,5.07,1.53,1.76,2.18,4.19,2.18,7.28v.22c0,3.97-1.31,7.06-3.92,9.49-2.62,2.21-8.72,3.31-13.52,3.31h-20.5v-46.33h0Z"/>
          <path id="path3169" class="cls-3" d="M357.09,962.76h34.67v9.71h-23.55v8.6h20.06v9.04h-20.06v9.27h23.98v9.93h-35.1v-46.55Z"/>
          <path id="path3171" class="cls-3" d="M397,962.76h11.99v36.62h20.93v9.71h-32.71v-46.33h-.22Z"/>
          <path id="path3187" class="cls-3" d="M434.5,962.76h11.99v36.62h20.93v9.71h-32.71v-46.33h-.22Z"/>
        </g>
        <g id="g3255">
          <path id="path3157" class="cls-3" d="M314.5,918.23h-13.86v-9.65h39.89v9.65h-14.24v36.8h-11.79v-36.8Z"/>
          <path id="path3159" class="cls-3" d="M361.67,938.87l-5.67-15.89-6.05,15.89h11.71,0ZM351.72,908.39h9.57l18.91,46.65h-12.44l-2.68-6.86h-18.3l-2.83,6.86h-11.48l19.26-46.65Z"/>
          <path id="path3163" class="cls-3" d="M445.24,907.77c-3.22.11-6.78.96-9.49,2.14-2.91,1.26-5.28,2.83-7.39,5.02-2.14,2.18-3.25,4.6-4.44,7.54-1.19,2.95-1.53,6.05-1.53,9.34v.15c0,3.29.31,6.4,1.53,9.31,1.19,2.91,2.83,5.44,4.94,7.62s4.59,3.87,7.5,5.13c2.91,1.26,6.05,1.88,9.42,1.88s6.55-.61,9.42-1.88c2.91-1.26,5.4-2.99,7.54-5.17s3.79-4.75,5.02-7.66c1.19-2.95,1.45-6.05,1.45-9.38v-.11c0-3.29-.27-6.4-1.45-9.31s-2.83-5.44-4.94-7.62c-2.11-2.14-4.59-3.87-7.47-5.13-2.91-1.26-6.05-1.88-9.46-1.88h-.65,0ZM445.74,917.96c1.8,0,3.45.38,4.94,1.15s2.76,1.8,3.83,3.06,1.91,2.76,2.49,4.4c.57,1.69.88,3.45.88,5.29v.15c0,1.88-.31,3.64-.88,5.29-.57,1.69-1.38,3.14-2.41,4.4s-2.3,2.26-3.79,2.99c-1.49.73-3.1,1.11-4.9,1.11s-3.45-.38-4.94-1.15-2.76-1.8-3.79-3.06c-1.07-1.26-1.88-2.76-2.45-4.4-.57-1.69-.88-3.45-.88-5.32v-.15c0-1.88.27-3.64.84-5.29.57-1.69,1.38-3.14,2.41-4.4,1.07-1.26,2.34-2.26,3.79-2.99,1.45-.73,3.06-1.07,4.86-1.07h0Z"/>
          <path id="path3189" class="cls-3" d="M378.36,931.94c0-5.94,1.53-12.52,5.59-16.85,4.44-4.71,11.52-7.28,17.99-7.28,12.67,0,18.49,8.77,18.49,8.77l-9,6.51s-2.41-2.76-3.98-3.6c-1.61-.84-3.48-1.53-5.28-1.34-3.37.31-6.97,1.8-9.19,4.33-2.11,2.37-3.1,5.9-2.99,9.08.19,4.25,1.8,8.96,5.02,11.8,1.76,1.57,4.82,1.95,6.85,1.95,3.02,0,4.63-.57,6.7-1.61,1.38-.69,3.6-2.99,3.6-2.99l9.42,6.78s-7.04,8.39-19.37,8.39c-5.4,0-11.29-1.3-15.08-4.48-5.59-4.79-8.77-8.62-8.77-19.46h0Z"/>
        </g>
        <g id="g3217">
          <g id="text3219">
            <path id="path3231" class="cls-3" d="M471.33,999.78h-1.67v-.5h3.95v.53h-1.67v4.5h-.57v-4.52h-.02Z"/>
            <path id="path3233" class="cls-3" d="M473.89,999.27h.57l1.84,2.75,1.84-2.75h.57v5.03h-.57v-4.07l-1.84,2.68h-.02l-1.84-2.68v4.07h-.55v-5.03Z"/>
          </g>
        </g>
      </g>
    </g>
  </g>
  <path class="cls-1" d="M269.09,469.19c0-.76.19-1.37.57-1.81s.96-.67,1.73-.67h21.51c3.52,0,6.74.55,9.67,1.66,2.93,1.11,5.45,2.64,7.54,4.62s3.72,4.31,4.87,7.01,1.73,5.64,1.73,8.82v6.31c0,1.78-.32,3.47-.95,5.07-.63,1.59-1.43,3.02-2.4,4.27s-2.04,2.28-3.21,3.09c-1.17.81-2.3,1.32-3.38,1.53.95.25,2.07.76,3.38,1.53,1.31.76,2.57,1.83,3.79,3.19,1.22,1.36,2.24,3.05,3.08,5.07s1.25,4.41,1.25,7.17v7.9c0,3.1-.64,5.94-1.93,8.51s-3.01,4.78-5.17,6.63c-2.16,1.85-4.65,3.28-7.44,4.3-2.8,1.02-5.71,1.53-8.73,1.53h-23.61c-1.53,0-2.3-.81-2.3-2.42v-83.26ZM285.8,482.19v20.64h5.95c.72,0,1.54-.09,2.47-.29s1.78-.54,2.57-1.05,1.46-1.21,2-2.1.81-2.02.81-3.38v-6.24c0-2.68-.72-4.61-2.16-5.8-1.44-1.19-3.27-1.78-5.48-1.78h-6.16ZM285.8,516.52v23h7.04c1.22,0,2.28-.21,3.18-.64.9-.42,1.67-.99,2.3-1.69.63-.7,1.1-1.49,1.42-2.36.31-.87.47-1.73.47-2.58v-7.77c0-1.36-.21-2.54-.64-3.53s-.99-1.83-1.69-2.48-1.52-1.15-2.47-1.47-1.92-.48-2.91-.48h-6.7Z"/>
  <path class="cls-1" d="M326.69,487.47c0-3.44.68-6.53,2.03-9.27s3.18-5.07,5.48-6.98,4.97-3.36,8.02-4.36,6.26-1.5,9.64-1.5,6.61.5,9.67,1.5,5.76,2.44,8.09,4.33c2.32,1.89,4.17,4.2,5.55,6.94,1.38,2.74,2.06,5.85,2.06,9.33v46.69c0,3.44-.69,6.53-2.06,9.27-1.38,2.74-3.22,5.06-5.55,6.97-2.32,1.91-5.02,3.37-8.09,4.36-3.07,1-6.29,1.5-9.67,1.5s-6.6-.52-9.64-1.56c-3.04-1.04-5.72-2.52-8.02-4.43s-4.13-4.22-5.48-6.94c-1.35-2.72-2.03-5.77-2.03-9.17v-46.69ZM344.68,533.28c0,1.02.16,1.99.47,2.9s.78,1.72,1.39,2.42,1.35,1.26,2.23,1.69c.88.43,1.9.64,3.08.64s2.21-.19,3.11-.57,1.67-.9,2.3-1.56,1.12-1.42,1.46-2.29.51-1.82.51-2.84v-45.23c0-1.02-.17-2-.51-2.93-.34-.93-.81-1.76-1.42-2.48-.61-.72-1.37-1.29-2.27-1.72-.9-.42-1.92-.64-3.04-.64s-2.21.21-3.11.64c-.9.43-1.66,1-2.27,1.72-.61.72-1.08,1.55-1.42,2.48-.34.94-.51,1.91-.51,2.93v44.85Z"/>
  <path class="cls-1" d="M438.24,552.13c0,.6-.18,1.19-.54,1.78-.36.6-.99.89-1.89.89h-12.45c-.77,0-1.48-.23-2.13-.7-.65-.47-.98-1.19-.98-2.17v-13.31c0-6.16-1.17-10.63-3.52-13.41s-5.84-4.32-10.49-4.62v31.92c0,1.57-.74,2.36-2.23,2.36h-13.53c-1.49,0-2.23-.78-2.23-2.36v-83.32c0-.76.2-1.37.61-1.81s.97-.67,1.69-.67h23.88c3.47,0,6.7.61,9.67,1.82s5.56,2.86,7.75,4.94c2.19,2.08,3.9,4.51,5.14,7.29,1.24,2.78,1.86,5.76,1.86,8.95v9.11c0,1.91-.25,3.66-.74,5.26s-1.17,3.06-2.03,4.4-1.88,2.56-3.08,3.66c-1.2,1.11-2.47,2.08-3.82,2.93,3.02,2.42,5.29,5.7,6.8,9.84,1.51,4.14,2.27,9.4,2.27,15.77v11.47ZM406.24,482.19v25.29h6.29c2.71,0,4.76-.66,6.16-1.97,1.4-1.32,2.1-3.06,2.1-5.22v-10.57c0-2.29-.71-4.12-2.13-5.48-1.42-1.36-3.3-2.04-5.65-2.04h-6.77Z"/>
  <path class="cls-1" d="M237.88,631.5c0-1.1.15-1.89.44-2.36.29-.47.91-.7,1.86-.7h12.31c.95,0,1.57.19,1.86.57s.44,1.06.44,2.04v2.87c0,1.61.24,2.95.71,4.01.47,1.06,1.08,1.92,1.83,2.58.74.66,1.58,1.13,2.5,1.4.92.28,1.82.41,2.67.41,1.08,0,2.09-.18,3.01-.54.92-.36,1.74-.87,2.44-1.53.7-.66,1.25-1.45,1.66-2.39.41-.93.61-1.97.61-3.12,0-1.53-.23-2.9-.68-4.11-.45-1.21-1.16-2.39-2.13-3.54s-2.2-2.33-3.69-3.54-3.27-2.62-5.34-4.24c-3.52-2.72-6.57-5.11-9.17-7.17-2.59-2.06-4.73-4.14-6.39-6.24-1.67-2.1-2.91-4.42-3.72-6.94-.81-2.53-1.22-5.62-1.22-9.27,0-2.76.37-5.24,1.12-7.45.74-2.21,1.75-4.16,3.01-5.86,1.26-1.7,2.71-3.14,4.33-4.33,1.62-1.19,3.33-2.18,5.11-2.96,1.78-.79,3.57-1.36,5.38-1.72,1.8-.36,3.49-.54,5.07-.54,3.52,0,6.74.55,9.67,1.66,2.93,1.1,5.46,2.67,7.58,4.68,2.12,2.02,3.78,4.46,4.97,7.33s1.79,6.06,1.79,9.59v3.63c0,.89-.17,1.52-.51,1.88-.34.36-1.05.54-2.13.54h-12.11c-.86,0-1.4-.18-1.62-.54-.23-.36-.34-.99-.34-1.88v-3.57c0-1.1-.16-2.14-.47-3.12-.32-.98-.78-1.83-1.39-2.55-.61-.72-1.36-1.3-2.27-1.72-.9-.42-1.96-.64-3.18-.64-.86,0-1.72.15-2.57.45-.86.3-1.64.76-2.33,1.4s-1.27,1.47-1.72,2.48c-.45,1.02-.68,2.25-.68,3.69,0,1.53.24,2.87.71,4.01s1.15,2.22,2.03,3.22c.88,1,1.94,1.96,3.18,2.9,1.24.93,2.61,1.95,4.09,3.06,3.16,2.29,6.12,4.51,8.9,6.66,2.77,2.14,5.19,4.45,7.24,6.91,2.05,2.46,3.66,5.19,4.84,8.19,1.17,2.99,1.76,6.51,1.76,10.54,0,2.97-.6,5.8-1.79,8.47s-2.89,5.02-5.07,7.04c-2.19,2.02-4.81,3.62-7.88,4.81-3.07,1.19-6.47,1.78-10.22,1.78-4.06,0-7.62-.63-10.69-1.88-3.07-1.25-5.63-2.94-7.68-5.06-2.05-2.12-3.59-4.55-4.6-7.29s-1.52-5.62-1.52-8.63v-3.38Z"/>
  <g>
    <path class="cls-1" d="M335.52,656.02c-.43,0-.8-.3-.89-.7l-3.84-18.06h-17.7l-3.85,18.06c-.08.41-.46.7-.89.7h-12.73c-.29,0-.55-.13-.72-.35-.17-.21-.22-.48-.16-.73l20.99-86.58c.1-.4.46-.68.89-.68h10.66c.42,0,.79.28.89.68l20.99,86.58c.06.26,0,.53-.16.74-.17.22-.44.35-.72.35h-12.73ZM328.04,624.48l-6.17-29.35-6.18,29.35h12.35Z"/>
    <path class="cls-1" d="M327.27,568.18c.19,0,.36.12.4.3l20.99,86.58c.06.24-.14.47-.4.47h-12.73c-.2,0-.36-.13-.4-.31l-3.86-18.15c-.04-.18-.21-.31-.4-.31h-17.84c-.2,0-.36.13-.4.31l-3.86,18.15c-.04.18-.21.31-.4.31h-12.73c-.26,0-.46-.23-.4-.47l20.99-86.58c.04-.17.21-.3.4-.3h10.66M315.08,624.98h13.58l-6.66-31.65h-.27l-6.66,31.65M327.27,567.18h-10.66c-.66,0-1.22.44-1.37,1.06l-20.99,86.58c-.1.41,0,.83.25,1.16.27.34.68.54,1.12.54h12.73c.66,0,1.24-.46,1.38-1.1l3.76-17.67h16.89l3.76,17.67c.14.64.72,1.1,1.38,1.1h12.73c.44,0,.85-.2,1.12-.54.26-.33.35-.76.25-1.16l-20.99-86.58c-.15-.63-.72-1.06-1.37-1.06h0ZM316.31,623.98l5.56-26.42,5.56,26.42h-11.12Z"/>
  </g>
  <path class="cls-1" d="M376.68,634.69c0,1.02.16,1.99.47,2.9.32.91.79,1.73,1.42,2.45.63.72,1.39,1.3,2.27,1.72.88.42,1.9.64,3.08.64s2.14-.21,3.04-.64c.9-.42,1.66-1,2.27-1.72.61-.72,1.07-1.54,1.39-2.45.32-.91.47-1.88.47-2.9v-63.96c0-.68.18-1.27.54-1.78s.9-.76,1.62-.76h13.73c.77,0,1.32.27,1.66.8.34.53.51,1.11.51,1.75v64.91c0,3.06-.69,5.92-2.06,8.6-1.38,2.68-3.21,5.02-5.51,7.04-2.3,2.02-4.98,3.6-8.05,4.75-3.07,1.15-6.29,1.72-9.67,1.72s-6.6-.57-9.64-1.72c-3.04-1.15-5.73-2.73-8.05-4.75-2.32-2.02-4.16-4.36-5.51-7.04s-2.03-5.54-2.03-8.6v-64.98c0-.68.17-1.26.51-1.75.34-.49.75-.73,1.25-.73h14.27c.81,0,1.35.24,1.62.73.27.49.41,1.07.41,1.75v64.02Z"/>
  <path class="cls-1" d="M440.85,637.59c.34.91.82,1.73,1.46,2.45.63.72,1.4,1.3,2.3,1.72.9.42,1.94.64,3.11.64s2.29-.21,3.21-.64c.92-.42,1.69-1,2.3-1.72.61-.72,1.06-1.54,1.35-2.45.29-.91.44-1.88.44-2.9v-7.58c0-.98.15-1.63.44-1.97.29-.34.82-.51,1.59-.51h12.65c.77,0,1.33.15,1.69.45.36.3.54.93.54,1.91v8.66c0,3.44-.63,6.53-1.89,9.27-1.26,2.74-3,5.06-5.21,6.98-2.21,1.91-4.79,3.37-7.75,4.36s-6.12,1.5-9.5,1.5-6.61-.5-9.67-1.5c-3.07-1-5.75-2.45-8.05-4.36-2.3-1.91-4.13-4.24-5.48-6.98s-2.03-5.83-2.03-9.27v-46.69c0-3.14.62-6.06,1.86-8.76,1.24-2.7,2.98-5.03,5.21-7.01s4.89-3.52,7.98-4.65c3.09-1.12,6.48-1.69,10.18-1.69,4.1,0,7.67.65,10.69,1.94,3.02,1.3,5.51,2.99,7.47,5.1s3.42,4.49,4.36,7.17,1.42,5.41,1.42,8.22v6.18c0,.98-.14,1.69-.41,2.13s-.86.67-1.76.67h-12.58c-.81,0-1.37-.2-1.66-.61-.29-.4-.44-1.05-.44-1.94v-5.92c0-.93-.16-1.86-.47-2.77-.32-.91-.77-1.73-1.35-2.45-.59-.72-1.31-1.31-2.16-1.75-.86-.45-1.85-.67-2.98-.67s-2.09.2-3.01.61c-.92.4-1.7.96-2.33,1.66-.63.7-1.13,1.5-1.49,2.39-.36.89-.54,1.85-.54,2.87v45.04c0,1.02.17,1.99.51,2.9Z"/>
  <path class="cls-1" d="M487.61,517.73v-49.45c1.07-1.81,14.7-2.64,15.61.74l-.22,85.68c-1.34,1.87-13.56,2.59-14.94-.84l-24.94-51.53-.13,52.11c-1.16,2.33-14.19,2.35-15.67.25l.78-87.06c1.77-1.28,13.64-1.4,15.83.87l23.67,49.23Z"/>
  <path class="cls-1" d="M494.32,568.39c1.37.95,1.92,2.11,2.59,3.51,4.58,9.53,5.91,21.85,10.85,31.46l11.04-34.25c3.04-.95,17.87-1.95,18.48,1.24l-20.43,51.24v34.23l-1.32.99-17.65.13v-33.11l-21.17-51.53c-.59-1-.02-3.91,1.02-3.91h16.6Z"/>
</svg>