<?xml version="1.0" encoding="UTF-8"?>
<svg id="Layer_1" data-name="Layer 1" xmlns="http://www.w3.org/2000/svg" viewBox="0 0 768 1152">
  <defs>
    <style>
      .cls-1 {
        fill: #d83200;
      }

      .cls-2 {
        fill: #fbf3e2;
      }

      .cls-3 {
        fill: #f9f2e1;
      }

      .cls-4 {
        fill: #f4ecda;
      }
    </style>
  </defs>
  <g>
    <path d="M768,0v1152H0V0h768ZM78.6,32.47c-15.16,1.63-30.19,14.53-31.37,30.13v1026.06c.83,16.74,15.78,29.87,31.87,31.87h609.05c13.94-1.18,31.29-14.23,32.63-28.87V61.09c-1.14-15.21-17.25-27.71-31.88-28.87l-610.31.25Z"/>
    <path class="cls-2" d="M78.6,32.47l610.31-.25c14.63,1.16,30.74,13.66,31.88,28.87v1030.56c-1.34,14.64-18.69,27.69-32.63,28.87H79.1c-16.09-2-31.04-15.12-31.88-31.87V62.6c1.19-15.59,16.22-28.5,31.38-30.13ZM87.6,51.22c-12.01.59-19.19,7.7-20.13,19.62v1009.56c.97,13.47,8.26,19.64,21.37,20.62h591.81c14.17-1.04,19.67-8.38,20.63-22.12V73.84c-.98-15.16-5.86-21.73-21.38-22.87l-592.3.25Z"/>
    <path class="cls-1" d="M87.6,51.22l592.3-.25c15.52,1.14,20.4,7.71,21.38,22.87v1005.07c-.96,13.74-6.46,21.08-20.63,22.12H88.85c-13.12-.99-20.4-7.16-21.38-20.62V70.85c.94-11.93,8.12-19.04,20.13-19.62ZM395.09,136.72c-25.08,2.43-42.41,20.86-44.13,45.87-2.38,34.63,1.6,72.31.37,107.13,5.58,64.93,99.96,62.34,104.69-3.57,2.38-33.21-1.83-69.26-.04-102.77-4.73-33.76-27.15-49.93-60.89-46.67ZM291,254.25v76.12c0,.49,2.41,2.42,3.39,2.61,4.33.83,21.33.5,26.27.05,7.94-.72,5.68-9.58,5.6-16.1-.12-10.6-.39-21.53-.81-32.28l-.32-143.66c-.69-1.25-1.69-1.37-2.97-1.53-3.06-.39-28.97-.25-30.4.42-.35.17-1.51,1.36-1.51,1.49v78.75l-1.12,1.12h-34.5l-1.68-80.07c-.24-.46-.49-1.05-.94-1.31-1.28-.75-26.41-.71-29.65-.37-1.12.12-2.25.24-3.18.93l-.96,3.92.05,185.26c.75,2.7,2.29,3.2,4.81,3.44,8.74.84,18.87-.7,27.78-.06,1.16.2,3.39-2.72,3.39-3.36v-75.38h36.75ZM465.38,171h25.5l1.12,1.12v158.25c0,.83,3.07,2.41,4.17,2.58,2.81.44,26.55.35,28.07-.35.39-.18,2.26-2.08,2.26-2.24v-158.25l1.12-1.12h24c.49,0,2.42-2.41,2.61-3.39.72-3.78.45-18.22.05-22.52-.22-2.4-.41-4.3-2.99-5.26l-83.72-.38c-1.67-.23-3.77.8-4.44,2.31-.71,1.62-.78,22.34-.35,25.06.19,1.2,1.54,3.87,2.58,4.17ZM559.42,385.57c-1.47-2.11-44.77-8.22-50.65-8.96-90.93-11.53-194.81-10.66-284.67,7.61-8.86,1.8-26.1,4.81-33.77,8.23-10.54,4.69-9.03,19.2,3.54,18.58,87.75-25.7,180.51-28.72,271.48-26.24,28.6.78,57.02,3.58,85.49,4.5,1.61.05,7.05.27,7.95-.37l.63-3.35ZM441.54,684.96c5.33,5.44,4.87,26.34,3.75,33.71-.86,5.66-6.43,17.88-2.81,21.97,4.57,5.17,11.26-4.65,14.25-8.28,11.81-14.35,19.96-31.58,24.76-49.49,11.69-2.14,23.81-2.17,35.41-5.09,42.76-10.75,60.69-33.13,67.22-76.03,5.08-33.35,6.31-99.18-13.07-127.68-22.67-33.33-86.61-32.25-122.92-33.83-49.32-2.14-99.97-2.41-149.25,1.51-34.85,2.77-85.55,8.09-105.69,40.56-22.73,36.64-14.11,116.63,5.92,153.71,22.1,40.9,68.68,46.73,110.97,48.01,33.28,1,68.03,1.35,101.33.76,7.18-.13,18.83-2.15,25.45-1.53,1.28.12,3.85.84,4.69,1.7Z"/>
    <path class="cls-4" d="M441.54,684.96c-.84-.86-3.41-1.58-4.69-1.7-6.61-.62-18.26,1.4-25.45,1.53-33.3.59-68.05.24-101.33-.76-42.29-1.28-88.87-7.1-110.97-48.01-20.03-37.08-28.66-117.07-5.92-153.71,20.15-32.47,70.85-37.78,105.69-40.56,49.29-3.92,99.93-3.66,149.25-1.51,36.32,1.58,100.26.5,122.92,33.83,19.38,28.5,18.15,94.33,13.07,127.68-6.53,42.9-24.46,65.28-67.22,76.03-11.61,2.92-23.72,2.95-35.41,5.09-4.8,17.91-12.95,35.14-24.76,49.49-2.99,3.64-9.68,13.45-14.25,8.28-3.62-4.1,1.95-16.31,2.81-21.97,1.13-7.37,1.58-28.27-3.75-33.71Z"/>
    <path class="cls-4" d="M291,254.25h-36.75v75.38c0,.64-2.23,3.56-3.39,3.36-8.91-.64-19.04.9-27.78.06-2.52-.24-4.06-.74-4.81-3.44l-.05-185.26.96-3.92c.93-.69,2.06-.81,3.18-.93,3.24-.34,28.37-.39,29.65.37.45.26.7.85.94,1.31l1.68,80.07h34.5l1.12-1.12v-78.75c0-.13,1.16-1.32,1.51-1.49,1.43-.67,27.34-.82,30.4-.42,1.28.16,2.28.28,2.97,1.53l.32,143.66c.42,10.75.69,21.68.81,32.28.08,6.52,2.34,15.38-5.6,16.1-4.94.45-21.94.78-26.27-.05-.98-.19-3.39-2.12-3.39-2.61v-76.12Z"/>
    <path class="cls-4" d="M395.09,136.72c33.74-3.27,56.17,12.9,60.89,46.67-1.79,33.51,2.43,69.56.04,102.77-4.73,65.91-99.11,68.5-104.69,3.57,1.23-34.82-2.74-72.5-.37-107.13,1.72-25.02,19.04-43.45,44.13-45.87ZM401.08,168.94c-8.13.96-13.59,7.42-14.74,15.27,1.8,33.08-2.69,69.22-.11,101.94,1.76,22.36,26.54,24.75,33.59,5.03.09-32.71,3.07-68.52.97-101.09-.75-11.72-5.99-22.78-19.71-21.16Z"/>
    <path class="cls-4" d="M465.38,171c-1.04-.3-2.39-2.97-2.58-4.17-.43-2.72-.36-23.45.35-25.06.67-1.51,2.76-2.54,4.44-2.31l83.72.38c2.58.96,2.77,2.86,2.99,5.26.39,4.3.67,18.74-.05,22.52-.19.98-2.12,3.39-2.61,3.39h-24l-1.12,1.12v158.25c0,.16-1.88,2.06-2.26,2.24-1.52.69-25.26.79-28.07.35-1.1-.17-4.17-1.75-4.17-2.58v-158.25l-1.12-1.12h-25.5Z"/>
    <path class="cls-4" d="M559.42,385.57l-.63,3.35c-.9.64-6.35.42-7.95.37-28.48-.92-56.9-3.72-85.49-4.5-90.97-2.48-183.73.54-271.48,26.24-12.57.62-14.08-13.89-3.54-18.58,7.68-3.41,24.92-6.43,33.77-8.23,89.86-18.27,193.74-19.15,284.67-7.61,5.88.75,49.18,6.85,50.65,8.96Z"/>
    <path class="cls-1" d="M345.38,498h33.75c17.7,0,33.56,16.14,34.9,33.35,1.17,15.06,1.12,40.46,0,55.56-.93,12.63-8.1,23.8-19.62,29.13-14.19,6.57-32.47,1.83-47.69,3.98-.81.24-2.48-1.33-2.48-1.65v-119.25l1.12-1.12ZM365.25,600h13.12c5.95,0,12.05-7.31,13.53-12.72,2.35-8.55,1.89-39.98,1-49.81-1.58-17.37-11.98-19.87-27.65-19.22v81.75Z"/>
    <path class="cls-1" d="M457.33,495.96c27.63-3.33,40.09,13.7,41.41,39.17.75,14.59,1.83,52.46-2.63,64.85-12.44,34.52-65.27,27.98-68.6-9.37-1.41-15.79-1.22-44.08-.04-60.02,1.26-17.13,11.98-32.48,29.86-34.64ZM458.8,516.92c-4.95,1.02-9.08,7.39-9.46,12.29,1.25,19.17-1.96,41.07-.07,59.91.87,8.67,7.65,13.25,16.12,12.38,11.03-1.13,11.28-12.68,11.65-21.34.57-13.25.6-31.09-.19-44.1-.19-3.03-.42-7.37-1.06-10.2-1.71-7.5-10.05-10.36-16.98-8.93Z"/>
    <path class="cls-1" d="M268.5,619.5l-.79-4.09.06-115.51c.1-.77.41-1.48,1.03-1.97,1.16-.92,15.87-1.08,18.05-.66.82.16,2.64,1.29,2.64,1.86v119.25l-1.12,1.12h-19.88Z"/>
    <path class="cls-1" d="M401.08,168.94c13.72-1.62,18.95,9.44,19.71,21.16,2.1,32.58-.88,68.39-.97,101.09-7.04,19.72-31.83,17.32-33.59-5.03-2.58-32.72,1.91-68.86.11-101.94,1.15-7.86,6.61-14.31,14.74-15.27Z"/>
  </g>
  <g id="layer1">
    <g id="g3328">
      <g id="g3278">
        <path id="path3124" class="cls-3" d="M386.09,750.06h-1.11c-11.18.11-22.47,2.76-32.92,7.74,0,0,1.61-.42,2.72-.42.15,0,.31,0,.42.04,1.07.19,2.11.73,2.95,1.38,1.23.92,1.65,2.72,2.99,3.52,1.07.65,2.41.77,3.68.8,2.68.15,5.32-.8,7.96-.96,2.72-.15,5.44-.23,8.12.15,3.94.57,7.89,1.61,11.56,3.18,4.33,1.84,8.38,4.4,12.17,7.16,3.75,2.72,7.01,6.01,10.34,9.23,4.82,4.63,8.69,10.26,13.9,14.44,2.14,1.72,4.33,3.18,7.04,4.29,3.87,1.61,12.21,2.76,12.21,2.76l3.48.88c1.8.31,3.45.73,4.9,1.23l.08.04c1.34.46,2.49,1.03,3.48,1.69-2.68-8.92-7.39-17.43-12.52-25.01-12.82-19.03-38.28-31.94-61.44-32.13h0Z"/>
        <path id="path3122" class="cls-3" d="M339.16,765.58c-6.89,5.09-13.09,11.37-18.18,18.84-7.81,11.41-13.44,25.39-13.44,39.33v64.72c0,1.42.8,2.14,1.8,2.14h19.64c-2.6-1.26-4.44-2.95-5.44-5.02-7.54-15.17,16.58-41.94,54.09-62.5,1.61-1.19,3.14-2.41,3.06-2.91-.08-.61-2.49.38-2.49.38-17.92,7.09-33.69,18.27-48.16,30.41,0,0-2.91-12.98-4.13-19.38-.77-3.94-1.76-7.85-2.11-11.87-.31-3.68,0-11.11,0-11.11,0,0,.19-7.47,1.3-11.11,1.19-3.83,5.59-10.99,5.59-10.99,0,0,3.6-5.06,6.39-7.85.73-.73,1.45-2.11,1.45-3.14,0-.88-.54-1.42-.77-2.26-.27-1.11-.54-2.45-.5-3.56.04-.88.19-1.61.57-2.37.34-.61.88-1.3,1.3-1.76h0Z"/>
        <path id="path3094" class="cls-3" d="M462.58,823.6c-5.82,14.48-25.53,34.16-54.09,49.48-16.5,8.85-31.47,14.48-44.14,17.5h96.47c1.19,0,1.8-.57,1.8-2.11-.04-19.34-.04-42.28-.04-64.88h0Z"/>
        <path id="path3096" class="cls-3" d="M440.15,822.14c-10.45,0-31.58,7.35-53.79,19.95-32.66,18.5-47.36,36.92-41.69,40.33,7.54,4.56,31.77,2.49,65.58-17.04,13.9-8,40.04-27.42,36.64-40.21-.57-2.03-2.95-2.99-6.74-3.03h0ZM389.81,844.89s7.35,14.06-4.02,22.67c-15.54,11.8-26.99-.77-26.99-.77,7.62-8.12,18.41-15.93,31.01-21.91Z"/>
      </g>
      <g id="g3261">
        <g id="text3143">
          <path id="path3167" class="cls-3" d="M335.94,998.72c1.74,0,3.05-.44,3.92-1.1s1.31-1.76,1.31-3.09v-.22c0-1.32-.44-2.21-1.31-3.09-.87-.66-2.18-1.1-4.14-1.1h-10.25v8.6h10.47ZM332.46,981.29c1.74,0,3.05-.22,3.92-.88.87-.66,1.31-1.76,1.31-3.09v-.22c0-1.32-.44-2.21-1.31-2.87s-2.18-1.1-3.71-1.1h-7.2v8.16h6.98ZM314.79,962.76h20.28c2.4,0,4.58.44,6.32,1.1,1.74.66,3.27,1.32,4.36,2.43.87.88,1.74,1.76,2.4,3.31.44,1.32.65,3.09.65,4.63v.44c0,2.65-1.09,4.85-2.18,6.4-1.09,1.76-2.83,1.76-4.58,2.65,3.27.44,6.98,3.31,8.5,5.07,1.53,1.76,2.18,4.19,2.18,7.28v.22c0,3.97-1.31,7.06-3.92,9.49-2.62,2.21-8.72,3.31-13.52,3.31h-20.5v-46.33h0Z"/>
          <path id="path3169" class="cls-3" d="M357.09,962.76h34.67v9.71h-23.55v8.6h20.06v9.04h-20.06v9.27h23.98v9.93h-35.1v-46.55Z"/>
          <path id="path3171" class="cls-3" d="M397,962.76h11.99v36.62h20.93v9.71h-32.71v-46.33h-.22Z"/>
          <path id="path3187" class="cls-3" d="M434.5,962.76h11.99v36.62h20.93v9.71h-32.71v-46.33h-.22Z"/>
        </g>
        <g id="g3255">
          <path id="path3157" class="cls-3" d="M314.5,918.23h-13.86v-9.65h39.89v9.65h-14.24v36.8h-11.79v-36.8Z"/>
          <path id="path3159" class="cls-3" d="M361.67,938.87l-5.67-15.89-6.05,15.89h11.71,0ZM351.72,908.39h9.57l18.91,46.65h-12.44l-2.68-6.86h-18.3l-2.83,6.86h-11.48l19.26-46.65Z"/>
          <path id="path3163" class="cls-3" d="M445.24,907.77c-3.22.11-6.78.96-9.49,2.14-2.91,1.26-5.28,2.83-7.39,5.02-2.14,2.18-3.25,4.6-4.44,7.54-1.19,2.95-1.53,6.05-1.53,9.34v.15c0,3.29.31,6.4,1.53,9.31,1.19,2.91,2.83,5.44,4.94,7.62s4.59,3.87,7.5,5.13c2.91,1.26,6.05,1.88,9.42,1.88s6.55-.61,9.42-1.88c2.91-1.26,5.4-2.99,7.54-5.17s3.79-4.75,5.02-7.66c1.19-2.95,1.45-6.05,1.45-9.38v-.11c0-3.29-.27-6.4-1.45-9.31s-2.83-5.44-4.94-7.62c-2.11-2.14-4.59-3.87-7.47-5.13-2.91-1.26-6.05-1.88-9.46-1.88h-.65,0ZM445.74,917.96c1.8,0,3.45.38,4.94,1.15s2.76,1.8,3.83,3.06,1.91,2.76,2.49,4.4c.57,1.69.88,3.45.88,5.29v.15c0,1.88-.31,3.64-.88,5.29-.57,1.69-1.38,3.14-2.41,4.4s-2.3,2.26-3.79,2.99c-1.49.73-3.1,1.11-4.9,1.11s-3.45-.38-4.94-1.15-2.76-1.8-3.79-3.06c-1.07-1.26-1.88-2.76-2.45-4.4-.57-1.69-.88-3.45-.88-5.32v-.15c0-1.88.27-3.64.84-5.29.57-1.69,1.38-3.14,2.41-4.4,1.07-1.26,2.34-2.26,3.79-2.99,1.45-.73,3.06-1.07,4.86-1.07h0Z"/>
          <path id="path3189" class="cls-3" d="M378.36,931.94c0-5.94,1.53-12.52,5.59-16.85,4.44-4.71,11.52-7.28,17.99-7.28,12.67,0,18.49,8.77,18.49,8.77l-9,6.51s-2.41-2.76-3.98-3.6c-1.61-.84-3.48-1.53-5.28-1.34-3.37.31-6.97,1.8-9.19,4.33-2.11,2.37-3.1,5.9-2.99,9.08.19,4.25,1.8,8.96,5.02,11.8,1.76,1.57,4.82,1.95,6.85,1.95,3.02,0,4.63-.57,6.7-1.61,1.38-.69,3.6-2.99,3.6-2.99l9.42,6.78s-7.04,8.39-19.37,8.39c-5.4,0-11.29-1.3-15.08-4.48-5.59-4.79-8.77-8.62-8.77-19.46h0Z"/>
        </g>
        <g id="g3217">
          <g id="text3219">
            <path id="path3231" class="cls-3" d="M471.33,999.78h-1.67v-.5h3.95v.53h-1.67v4.5h-.57v-4.52h-.02Z"/>
            <path id="path3233" class="cls-3" d="M473.89,999.27h.57l1.84,2.75,1.84-2.75h.57v5.03h-.57v-4.07l-1.84,2.68h-.02l-1.84-2.68v4.07h-.55v-5.03Z"/>
          </g>
        </g>
      </g>
    </g>
  </g>
</svg>