<?xml version="1.0" encoding="UTF-8"?>
<svg id="Layer_1" data-name="Layer 1" xmlns="http://www.w3.org/2000/svg" viewBox="0 0 768 1152">
  <defs>
    <style>
      .cls-1 {
        fill: #d83200;
      }

      .cls-2 {
        fill: #fbf3e2;
      }

      .cls-3 {
        fill: #f9f2e1;
      }

      .cls-4 {
        fill: #f4ecda;
      }
    </style>
  </defs>
  <g>
    <path d="M768,0v1152H0V0h768ZM78.6,32.47c-15.16,1.63-30.19,14.53-31.37,30.13v1026.06c.83,16.74,15.78,29.87,31.87,31.87h609.05c13.94-1.18,31.29-14.23,32.63-28.87V61.09c-1.14-15.21-17.25-27.71-31.88-28.87l-610.31.25Z"/>
    <path class="cls-2" d="M78.6,32.47l610.31-.25c14.63,1.16,30.74,13.66,31.88,28.87v1030.56c-1.34,14.64-18.69,27.69-32.63,28.87H79.1c-16.09-2-31.04-15.12-31.88-31.87V62.6c1.19-15.59,16.22-28.5,31.38-30.13ZM87.6,51.22c-12.01.59-19.19,7.7-20.13,19.62v1009.56c.97,13.47,8.26,19.64,21.37,20.62h591.81c14.17-1.04,19.67-8.38,20.63-22.12V73.84c-.98-15.16-5.86-21.73-21.38-22.87l-592.3.25Z"/>
    <path class="cls-1" d="M87.6,51.22l592.3-.25c15.52,1.14,20.4,7.71,21.38,22.87v1005.07c-.96,13.74-6.46,21.08-20.63,22.12H88.85c-13.12-.99-20.4-7.16-21.38-20.62V70.85c.94-11.93,8.12-19.04,20.13-19.62ZM395.09,136.72c-25.08,2.43-42.41,20.86-44.13,45.87-2.38,34.63,1.6,72.31.37,107.13,5.58,64.93,99.96,62.34,104.69-3.57,2.38-33.21-1.83-69.26-.04-102.77-4.73-33.76-27.15-49.93-60.89-46.67ZM291,254.25v76.12c0,.49,2.41,2.42,3.39,2.61,4.33.83,21.33.5,26.27.05,7.94-.72,5.68-9.58,5.6-16.1-.12-10.6-.39-21.53-.81-32.28l-.32-143.66c-.69-1.25-1.69-1.37-2.97-1.53-3.06-.39-28.97-.25-30.4.42-.35.17-1.51,1.36-1.51,1.49v78.75l-1.12,1.12h-34.5l-1.68-80.07c-.24-.46-.49-1.05-.94-1.31-1.28-.75-26.41-.71-29.65-.37-1.12.12-2.25.24-3.18.93l-.96,3.92.05,185.26c.75,2.7,2.29,3.2,4.81,3.44,8.74.84,18.87-.7,27.78-.06,1.16.2,3.39-2.72,3.39-3.36v-75.38h36.75ZM465.38,171h25.5l1.12,1.12v158.25c0,.83,3.07,2.41,4.17,2.58,2.81.44,26.55.35,28.07-.35.39-.18,2.26-2.08,2.26-2.24v-158.25l1.12-1.12h24c.49,0,2.42-2.41,2.61-3.39.72-3.78.45-18.22.05-22.52-.22-2.4-.41-4.3-2.99-5.26l-83.72-.38c-1.67-.23-3.77.8-4.44,2.31-.71,1.62-.78,22.34-.35,25.06.19,1.2,1.54,3.87,2.58,4.17ZM559.42,385.57c-1.47-2.11-44.77-8.22-50.65-8.96-90.93-11.53-194.81-10.66-284.67,7.61-8.86,1.8-26.1,4.81-33.77,8.23-10.54,4.69-9.03,19.2,3.54,18.58,87.75-25.7,180.51-28.72,271.48-26.24,28.6.78,57.02,3.58,85.49,4.5,1.61.05,7.05.27,7.95-.37l.63-3.35Z"/>
    <path class="cls-4" d="M291,254.25h-36.75v75.38c0,.64-2.23,3.56-3.39,3.36-8.91-.64-19.04.9-27.78.06-2.52-.24-4.06-.74-4.81-3.44l-.05-185.26.96-3.92c.93-.69,2.06-.81,3.18-.93,3.24-.34,28.37-.39,29.65.37.45.26.7.85.94,1.31l1.68,80.07h34.5l1.12-1.12v-78.75c0-.13,1.16-1.32,1.51-1.49,1.43-.67,27.34-.82,30.4-.42,1.28.16,2.28.28,2.97,1.53l.32,143.66c.42,10.75.69,21.68.81,32.28.08,6.52,2.34,15.38-5.6,16.1-4.94.45-21.94.78-26.27-.05-.98-.19-3.39-2.12-3.39-2.61v-76.12Z"/>
    <path class="cls-4" d="M395.09,136.72c33.74-3.27,56.17,12.9,60.89,46.67-1.79,33.51,2.43,69.56.04,102.77-4.73,65.91-99.11,68.5-104.69,3.57,1.23-34.82-2.74-72.5-.37-107.13,1.72-25.02,19.04-43.45,44.13-45.87ZM401.08,168.94c-8.13.96-13.59,7.42-14.74,15.27,1.8,33.08-2.69,69.22-.11,101.94,1.76,22.36,26.54,24.75,33.59,5.03.09-32.71,3.07-68.52.97-101.09-.75-11.72-5.99-22.78-19.71-21.16Z"/>
    <path class="cls-4" d="M465.38,171c-1.04-.3-2.39-2.97-2.58-4.17-.43-2.72-.36-23.45.35-25.06.67-1.51,2.76-2.54,4.44-2.31l83.72.38c2.58.96,2.77,2.86,2.99,5.26.39,4.3.67,18.74-.05,22.52-.19.98-2.12,3.39-2.61,3.39h-24l-1.12,1.12v158.25c0,.16-1.88,2.06-2.26,2.24-1.52.69-25.26.79-28.07.35-1.1-.17-4.17-1.75-4.17-2.58v-158.25l-1.12-1.12h-25.5Z"/>
    <path class="cls-4" d="M559.42,385.57l-.63,3.35c-.9.64-6.35.42-7.95.37-28.48-.92-56.9-3.72-85.49-4.5-90.97-2.48-183.73.54-271.48,26.24-12.57.62-14.08-13.89-3.54-18.58,7.68-3.41,24.92-6.43,33.77-8.23,89.86-18.27,193.74-19.15,284.67-7.61,5.88.75,49.18,6.85,50.65,8.96Z"/>
    <path class="cls-1" d="M401.08,168.94c13.72-1.62,18.95,9.44,19.71,21.16,2.1,32.58-.88,68.39-.97,101.09-7.04,19.72-31.83,17.32-33.59-5.03-2.58-32.72,1.91-68.86.11-101.94,1.15-7.86,6.61-14.31,14.74-15.27Z"/>
  </g>
  <g id="layer1">
    <g id="g3328">
      <g id="g3278">
        <path id="path3124" class="cls-3" d="M386.09,750.06h-1.11c-11.18.11-22.47,2.76-32.92,7.74,0,0,1.61-.42,2.72-.42.15,0,.31,0,.42.04,1.07.19,2.11.73,2.95,1.38,1.23.92,1.65,2.72,2.99,3.52,1.07.65,2.41.77,3.68.8,2.68.15,5.32-.8,7.96-.96,2.72-.15,5.44-.23,8.12.15,3.94.57,7.89,1.61,11.56,3.18,4.33,1.84,8.38,4.4,12.17,7.16,3.75,2.72,7.01,6.01,10.34,9.23,4.82,4.63,8.69,10.26,13.9,14.44,2.14,1.72,4.33,3.18,7.04,4.29,3.87,1.61,12.21,2.76,12.21,2.76l3.48.88c1.8.31,3.45.73,4.9,1.23l.08.04c1.34.46,2.49,1.03,3.48,1.69-2.68-8.92-7.39-17.43-12.52-25.01-12.82-19.03-38.28-31.94-61.44-32.13h0Z"/>
        <path id="path3122" class="cls-3" d="M339.16,765.58c-6.89,5.09-13.09,11.37-18.18,18.84-7.81,11.41-13.44,25.39-13.44,39.33v64.72c0,1.42.8,2.14,1.8,2.14h19.64c-2.6-1.26-4.44-2.95-5.44-5.02-7.54-15.17,16.58-41.94,54.09-62.5,1.61-1.19,3.14-2.41,3.06-2.91-.08-.61-2.49.38-2.49.38-17.92,7.09-33.69,18.27-48.16,30.41,0,0-2.91-12.98-4.13-19.38-.77-3.94-1.76-7.85-2.11-11.87-.31-3.68,0-11.11,0-11.11,0,0,.19-7.47,1.3-11.11,1.19-3.83,5.59-10.99,5.59-10.99,0,0,3.6-5.06,6.39-7.85.73-.73,1.45-2.11,1.45-3.14,0-.88-.54-1.42-.77-2.26-.27-1.11-.54-2.45-.5-3.56.04-.88.19-1.61.57-2.37.34-.61.88-1.3,1.3-1.76h0Z"/>
        <path id="path3094" class="cls-3" d="M462.58,823.6c-5.82,14.48-25.53,34.16-54.09,49.48-16.5,8.85-31.47,14.48-44.14,17.5h96.47c1.19,0,1.8-.57,1.8-2.11-.04-19.34-.04-42.28-.04-64.88h0Z"/>
        <path id="path3096" class="cls-3" d="M440.15,822.14c-10.45,0-31.58,7.35-53.79,19.95-32.66,18.5-47.36,36.92-41.69,40.33,7.54,4.56,31.77,2.49,65.58-17.04,13.9-8,40.04-27.42,36.64-40.21-.57-2.03-2.95-2.99-6.74-3.03h0ZM389.81,844.89s7.35,14.06-4.02,22.67c-15.54,11.8-26.99-.77-26.99-.77,7.62-8.12,18.41-15.93,31.01-21.91Z"/>
      </g>
      <g id="g3261">
        <g id="text3143">
          <path id="path3167" class="cls-3" d="M335.94,998.72c1.74,0,3.05-.44,3.92-1.1s1.31-1.76,1.31-3.09v-.22c0-1.32-.44-2.21-1.31-3.09-.87-.66-2.18-1.1-4.14-1.1h-10.25v8.6h10.47ZM332.46,981.29c1.74,0,3.05-.22,3.92-.88.87-.66,1.31-1.76,1.31-3.09v-.22c0-1.32-.44-2.21-1.31-2.87s-2.18-1.1-3.71-1.1h-7.2v8.16h6.98ZM314.79,962.76h20.28c2.4,0,4.58.44,6.32,1.1,1.74.66,3.27,1.32,4.36,2.43.87.88,1.74,1.76,2.4,3.31.44,1.32.65,3.09.65,4.63v.44c0,2.65-1.09,4.85-2.18,6.4-1.09,1.76-2.83,1.76-4.58,2.65,3.27.44,6.98,3.31,8.5,5.07,1.53,1.76,2.18,4.19,2.18,7.28v.22c0,3.97-1.31,7.06-3.92,9.49-2.62,2.21-8.72,3.31-13.52,3.31h-20.5v-46.33h0Z"/>
          <path id="path3169" class="cls-3" d="M357.09,962.76h34.67v9.71h-23.55v8.6h20.06v9.04h-20.06v9.27h23.98v9.93h-35.1v-46.55Z"/>
          <path id="path3171" class="cls-3" d="M397,962.76h11.99v36.62h20.93v9.71h-32.71v-46.33h-.22Z"/>
          <path id="path3187" class="cls-3" d="M434.5,962.76h11.99v36.62h20.93v9.71h-32.71v-46.33h-.22Z"/>
        </g>
        <g id="g3255">
          <path id="path3157" class="cls-3" d="M314.5,918.23h-13.86v-9.65h39.89v9.65h-14.24v36.8h-11.79v-36.8Z"/>
          <path id="path3159" class="cls-3" d="M361.67,938.87l-5.67-15.89-6.05,15.89h11.71,0ZM351.72,908.39h9.57l18.91,46.65h-12.44l-2.68-6.86h-18.3l-2.83,6.86h-11.48l19.26-46.65Z"/>
          <path id="path3163" class="cls-3" d="M445.24,907.77c-3.22.11-6.78.96-9.49,2.14-2.91,1.26-5.28,2.83-7.39,5.02-2.14,2.18-3.25,4.6-4.44,7.54-1.19,2.95-1.53,6.05-1.53,9.34v.15c0,3.29.31,6.4,1.53,9.31,1.19,2.91,2.83,5.44,4.94,7.62s4.59,3.87,7.5,5.13c2.91,1.26,6.05,1.88,9.42,1.88s6.55-.61,9.42-1.88c2.91-1.26,5.4-2.99,7.54-5.17s3.79-4.75,5.02-7.66c1.19-2.95,1.45-6.05,1.45-9.38v-.11c0-3.29-.27-6.4-1.45-9.31s-2.83-5.44-4.94-7.62c-2.11-2.14-4.59-3.87-7.47-5.13-2.91-1.26-6.05-1.88-9.46-1.88h-.65,0ZM445.74,917.96c1.8,0,3.45.38,4.94,1.15s2.76,1.8,3.83,3.06,1.91,2.76,2.49,4.4c.57,1.69.88,3.45.88,5.29v.15c0,1.88-.31,3.64-.88,5.29-.57,1.69-1.38,3.14-2.41,4.4s-2.3,2.26-3.79,2.99c-1.49.73-3.1,1.11-4.9,1.11s-3.45-.38-4.94-1.15-2.76-1.8-3.79-3.06c-1.07-1.26-1.88-2.76-2.45-4.4-.57-1.69-.88-3.45-.88-5.32v-.15c0-1.88.27-3.64.84-5.29.57-1.69,1.38-3.14,2.41-4.4,1.07-1.26,2.34-2.26,3.79-2.99,1.45-.73,3.06-1.07,4.86-1.07h0Z"/>
          <path id="path3189" class="cls-3" d="M378.36,931.94c0-5.94,1.53-12.52,5.59-16.85,4.44-4.71,11.52-7.28,17.99-7.28,12.67,0,18.49,8.77,18.49,8.77l-9,6.51s-2.41-2.76-3.98-3.6c-1.61-.84-3.48-1.53-5.28-1.34-3.37.31-6.97,1.8-9.19,4.33-2.11,2.37-3.1,5.9-2.99,9.08.19,4.25,1.8,8.96,5.02,11.8,1.76,1.57,4.82,1.95,6.85,1.95,3.02,0,4.63-.57,6.7-1.61,1.38-.69,3.6-2.99,3.6-2.99l9.42,6.78s-7.04,8.39-19.37,8.39c-5.4,0-11.29-1.3-15.08-4.48-5.59-4.79-8.77-8.62-8.77-19.46h0Z"/>
        </g>
        <g id="g3217">
          <g id="text3219">
            <path id="path3231" class="cls-3" d="M471.33,999.78h-1.67v-.5h3.95v.53h-1.67v4.5h-.57v-4.52h-.02Z"/>
            <path id="path3233" class="cls-3" d="M473.89,999.27h.57l1.84,2.75,1.84-2.75h.57v5.03h-.57v-4.07l-1.84,2.68h-.02l-1.84-2.68v4.07h-.55v-5.03Z"/>
          </g>
        </g>
      </g>
    </g>
  </g>
  <path class="cls-3" d="M451.02,738.47c-2.66-2.66,2.43-16.66,2.81-21.21,1.1-13.34-.75-29.12-16.84-30.39-16.97-1.34-38.02-.45-55.5-.75-43.11-.75-88.44.33-131.18-5.31-57.82-7.64-76.02-31.71-83.61-88.14-4.79-35.58-7.91-111.1,10-142.03,23.79-41.07,98.99-39.23,141.04-40.45,51.04-1.49,102.79-1.44,153.73.71,63.03,2.67,127.33-.8,137.52,76.98,4.7,35.88,2.85,116.14-11.02,149.29-18.49,44.19-69.76,43.12-110.42,47.08-4.39,13.94-9.4,27.99-17.5,40.25-2.51,3.8-13.55,19.47-19.05,13.97Z"/>
  <g>
    <path class="cls-1" d="M309.92,496.23c-1.46,0-2.26-.88-2.26-2.47v-67.69c0-.73.17-1.33.52-1.78.37-.49.94-.74,1.69-.74h10.36c.75,0,1.32.25,1.69.74.34.45.52,1.05.52,1.78v56.68h17c.73,0,1.95.29,1.95,2.26v8.86c0,2.06-1.22,2.36-1.95,2.36h-29.52Z"/>
    <path class="cls-1" d="M320.23,424.05c.59,0,1.02.18,1.29.54.28.36.41.85.41,1.48v57.18h17.51c.97,0,1.45.59,1.45,1.76v8.86c0,1.24-.48,1.86-1.45,1.86h-29.52c-1.17,0-1.76-.66-1.76-1.97v-67.69c0-.62.14-1.11.41-1.48.28-.36.71-.54,1.29-.54h10.36M320.23,423.05h-10.36c-1.14,0-1.76.51-2.09.94-.41.54-.62,1.24-.62,2.08v67.69c0,1.86,1.03,2.97,2.76,2.97h29.52c.57,0,2.45-.21,2.45-2.86v-8.86c0-1.73-.92-2.76-2.45-2.76h-16.51v-56.18c0-.84-.21-1.54-.62-2.08-.33-.43-.96-.94-2.09-.94h0Z"/>
  </g>
  <g>
    <path class="cls-1" d="M349.52,496.23c-1.46,0-2.26-.88-2.26-2.47v-67.69c0-.74.2-1.34.58-1.8.41-.48.97-.72,1.68-.72h30.97c.73,0,1.95.31,1.95,2.42v8.8c0,2.06-1.22,2.36-1.95,2.36h-18.46v15.62h14.62c.57,0,1.07.18,1.49.53.45.38.67.98.67,1.78v8.86c0,.77-.21,1.35-.63,1.72-.4.36-.92.54-1.52.54h-14.62v16.56h18.71c.55,0,1.03.2,1.42.59.39.39.59.95.59,1.67v8.91c0,.76-.2,1.34-.59,1.73-.39.39-.86.59-1.41.59h-31.23Z"/>
    <path class="cls-1" d="M380.49,424.05c.97,0,1.45.64,1.45,1.92v8.8c0,1.24-.48,1.86-1.45,1.86h-18.96v16.62h15.12c.45,0,.84.14,1.17.41.33.28.49.74.49,1.4v8.86c0,.62-.15,1.07-.47,1.35-.31.28-.71.41-1.19.41h-15.12v17.56h19.21c.41,0,.77.15,1.06.44.29.29.44.73.44,1.32v8.91c0,.62-.15,1.08-.44,1.37-.29.29-.65.44-1.06.44h-31.23c-1.17,0-1.76-.66-1.76-1.97v-67.69c0-.62.16-1.11.47-1.48.31-.36.74-.54,1.3-.54h30.97M380.49,423.05h-30.97c-.84,0-1.55.31-2.05.89-.47.55-.71,1.27-.71,2.13v67.69c0,1.86,1.03,2.97,2.76,2.97h31.23c.68,0,1.29-.25,1.77-.73.49-.49.73-1.19.73-2.08v-8.91c0-.86-.25-1.54-.73-2.03-.48-.48-1.09-.73-1.77-.73h-18.21v-15.56h14.12c.73,0,1.36-.22,1.86-.67.53-.47.8-1.18.8-2.09v-8.86c0-.96-.29-1.69-.85-2.16-.51-.43-1.12-.65-1.81-.65h-14.12v-14.62h17.96c.57,0,2.45-.21,2.45-2.86v-8.8c0-2.71-1.88-2.92-2.45-2.92h0Z"/>
  </g>
  <g>
    <path class="cls-1" d="M400.93,496.23c-.59,0-1.09-.21-1.46-.63-.36-.4-.54-.97-.54-1.68v-56.78h-9.13c-.6,0-1.09-.21-1.46-.63-.36-.4-.54-.99-.54-1.73v-8.8c0-.74.18-1.33.53-1.75.37-.44.88-.67,1.47-.67h33.09c.6,0,1.09.21,1.46.63.36.4.54.99.54,1.73v8.86c0,.75-.18,1.33-.54,1.73-.37.42-.87.63-1.46.63h-9.13v56.78c0,.72-.19,1.29-.58,1.69-.39.41-.87.62-1.42.62h-10.82Z"/>
    <path class="cls-1" d="M422.88,424.05c.45,0,.81.16,1.09.47.28.31.41.78.41,1.4v8.86c0,.62-.14,1.09-.41,1.4-.28.31-.64.47-1.09.47h-9.63v57.28c0,.59-.15,1.04-.44,1.35-.29.31-.65.47-1.06.47h-10.82c-.45,0-.81-.16-1.09-.47-.28-.31-.41-.76-.41-1.35v-57.28h-9.63c-.45,0-.81-.16-1.09-.47-.28-.31-.41-.78-.41-1.4v-8.8c0-.62.14-1.1.41-1.42.28-.33.64-.49,1.09-.49h33.09M422.88,423.05h-33.09c-.75,0-1.39.29-1.85.85-.43.51-.65,1.21-.65,2.07v8.8c0,.87.22,1.57.67,2.06.46.52,1.1.8,1.83.8h8.63v56.28c0,.84.22,1.51.67,2.01.47.52,1.1.8,1.83.8h10.82c.69,0,1.31-.27,1.79-.78.47-.5.71-1.19.71-2.03v-56.28h8.63c.73,0,1.37-.28,1.83-.8.44-.5.67-1.19.67-2.06v-8.86c0-.87-.22-1.56-.67-2.06-.47-.53-1.1-.8-1.83-.8h0Z"/>
  </g>
  <g>
    <path class="cls-1" d="M465.17,497.37c-3.16,0-5.98-.53-8.38-1.57-2.4-1.04-4.44-2.47-6.05-4.24-1.61-1.77-2.83-3.82-3.62-6.1-.79-2.27-1.19-4.68-1.19-7.18v-2.75c0-1,.13-1.71.41-2.17.32-.54.94-.81,1.86-.81h9.43c.9,0,1.5.22,1.83.67.29.4.43,1.04.43,1.95v2.33c0,1.24.17,2.27.5,3.07.33.79.76,1.44,1.28,1.93.51.48,1.09.83,1.72,1.03.66.21,1.29.31,1.89.31.76,0,1.47-.14,2.11-.4.64-.27,1.22-.65,1.7-1.13s.88-1.08,1.16-1.78c.28-.69.43-1.49.43-2.35,0-1.18-.17-2.25-.49-3.17-.33-.93-.85-1.84-1.55-2.73-.72-.91-1.65-1.85-2.76-2.81-1.14-.98-2.5-2.13-4.08-3.44-2.69-2.21-5.04-4.15-7.02-5.83-2.01-1.69-3.68-3.43-4.97-5.16-1.3-1.74-2.29-3.69-2.93-5.8-.63-2.09-.95-4.67-.95-7.68,0-2.29.29-4.38.88-6.21.58-1.84,1.38-3.49,2.37-4.9.99-1.42,2.14-2.64,3.42-3.63,1.27-.99,2.62-1.81,4.01-2.47,1.4-.65,2.82-1.13,4.23-1.43,1.41-.3,2.75-.45,3.99-.45,2.74,0,5.29.46,7.59,1.38,2.3.92,4.31,2.24,5.97,3.92,1.66,1.68,2.98,3.74,3.92,6.13.93,2.38,1.41,5.06,1.41,7.98v2.95c0,.86-.17,1.47-.51,1.86-.36.41-1.02.61-2.01.61h-9.27c-.85,0-1.4-.22-1.67-.69-.22-.38-.33-.94-.33-1.78v-2.9c0-.84-.12-1.65-.34-2.39-.22-.73-.55-1.37-.97-1.91-.42-.53-.94-.95-1.57-1.26-.62-.31-1.36-.47-2.21-.47-.59,0-1.2.11-1.8.33-.59.22-1.13.56-1.61,1.03-.48.47-.89,1.09-1.21,1.85-.32.76-.48,1.71-.48,2.81,0,1.18.17,2.21.51,3.08.34.88.84,1.71,1.47,2.48.65.78,1.44,1.55,2.36,2.29.95.76,1.99,1.59,3.13,2.48,2.42,1.86,4.71,3.69,6.82,5.42,2.14,1.76,4.03,3.67,5.62,5.7,1.6,2.04,2.87,4.32,3.78,6.79.92,2.48,1.38,5.42,1.38,8.74,0,2.47-.47,4.85-1.41,7.08-.94,2.23-2.28,4.21-4,5.89-1.71,1.68-3.8,3.03-6.19,4.01-2.4.99-5.09,1.49-8.01,1.49Z"/>
    <path class="cls-1" d="M464.81,422.96c2.69,0,5.16.45,7.41,1.35,2.24.9,4.18,2.17,5.8,3.81,1.62,1.64,2.89,3.63,3.81,5.96.91,2.33,1.37,4.93,1.37,7.79v2.95c0,.73-.13,1.23-.39,1.53-.26.29-.8.44-1.63.44h-9.27c-.66,0-1.07-.15-1.24-.44-.17-.29-.26-.8-.26-1.53v-2.9c0-.9-.12-1.74-.36-2.54-.24-.79-.6-1.48-1.06-2.07-.47-.59-1.04-1.05-1.74-1.4-.69-.34-1.5-.52-2.43-.52-.66,0-1.31.12-1.97.36-.66.24-1.25.62-1.79,1.14-.54.52-.98,1.19-1.32,2.02-.35.83-.52,1.83-.52,3,0,1.24.18,2.33.54,3.26.36.93.88,1.8,1.55,2.62.67.81,1.48,1.6,2.43,2.36.95.76,1.99,1.59,3.13,2.49,2.42,1.86,4.69,3.67,6.81,5.41,2.12,1.74,3.97,3.62,5.54,5.62,1.57,2,2.8,4.22,3.7,6.66.9,2.43,1.35,5.29,1.35,8.57,0,2.42-.46,4.71-1.37,6.89-.92,2.18-2.21,4.08-3.88,5.72-1.68,1.64-3.69,2.94-6.03,3.91-2.35.97-4.95,1.45-7.82,1.45-3.11,0-5.83-.51-8.18-1.53-2.35-1.02-4.31-2.39-5.88-4.12-1.57-1.73-2.74-3.7-3.52-5.93-.78-2.23-1.17-4.57-1.17-7.02v-2.74c0-.9.11-1.54.34-1.92.22-.38.7-.57,1.42-.57h9.43c.73,0,1.2.15,1.42.47.22.31.34.86.34,1.66v2.33c0,1.31.18,2.4.54,3.26.36.86.83,1.56,1.4,2.1.57.54,1.21.91,1.92,1.14.71.22,1.39.34,2.05.34.83,0,1.6-.15,2.3-.44.71-.29,1.33-.71,1.86-1.24.53-.54.96-1.18,1.27-1.94.31-.76.47-1.61.47-2.54,0-1.24-.17-2.36-.52-3.34-.35-.98-.89-1.94-1.63-2.87-.74-.93-1.68-1.89-2.82-2.87-1.14-.98-2.5-2.13-4.09-3.44-2.69-2.21-5.03-4.15-7.02-5.83-1.99-1.67-3.62-3.37-4.89-5.08-1.28-1.71-2.23-3.59-2.85-5.64s-.93-4.57-.93-7.54c0-2.24.29-4.26.85-6.06.57-1.79,1.34-3.38,2.3-4.76.97-1.38,2.07-2.55,3.31-3.52,1.24-.97,2.55-1.77,3.91-2.41,1.36-.64,2.74-1.1,4.12-1.4,1.38-.29,2.68-.44,3.88-.44M464.81,421.96c-1.27,0-2.65.16-4.09.46-1.45.31-2.91.8-4.33,1.47-1.42.67-2.8,1.52-4.1,2.52-1.32,1.02-2.5,2.28-3.52,3.74-1.02,1.46-1.84,3.15-2.44,5.04-.6,1.89-.9,4.03-.9,6.36,0,3.05.33,5.69.98,7.83.65,2.16,1.66,4.16,3,5.95,1.32,1.76,3.02,3.53,5.05,5.24,1.97,1.66,4.34,3.63,7.03,5.83,1.63,1.35,2.96,2.47,4.07,3.43,1.09.94,1.99,1.86,2.69,2.74.67.84,1.16,1.71,1.47,2.58.31.87.46,1.89.46,3.01,0,.8-.13,1.53-.39,2.16-.26.63-.61,1.17-1.05,1.62-.44.44-.96.78-1.54,1.03-.58.24-1.23.36-1.92.36-.55,0-1.14-.1-1.74-.29-.57-.18-1.07-.48-1.53-.91-.46-.44-.86-1.03-1.16-1.76-.31-.74-.47-1.7-.47-2.88v-2.33c0-1.03-.17-1.75-.53-2.24-.43-.59-1.16-.88-2.24-.88h-9.43c-1.37,0-2,.58-2.29,1.06-.32.55-.48,1.32-.48,2.43v2.74c0,2.55.41,5.02,1.22,7.35.82,2.35,2.07,4.46,3.73,6.27,1.66,1.82,3.75,3.29,6.22,4.36,2.46,1.07,5.35,1.61,8.58,1.61,2.98,0,5.74-.51,8.2-1.53,2.46-1.01,4.59-2.4,6.35-4.12,1.76-1.73,3.14-3.76,4.11-6.05.96-2.29,1.45-4.74,1.45-7.28,0-3.38-.47-6.38-1.41-8.92-.93-2.52-2.23-4.85-3.85-6.93-1.61-2.05-3.53-3.99-5.69-5.77-2.12-1.74-4.42-3.56-6.83-5.43-1.13-.89-2.17-1.72-3.12-2.47-.89-.71-1.66-1.46-2.29-2.21-.6-.73-1.07-1.51-1.39-2.34-.32-.81-.48-1.79-.48-2.9,0-1.04.15-1.92.44-2.62.29-.7.66-1.27,1.09-1.69.43-.42.92-.73,1.44-.92.54-.2,1.09-.3,1.62-.3.77,0,1.44.14,1.99.41.56.28,1.02.65,1.4,1.13.39.49.68,1.07.89,1.74.21.7.32,1.46.32,2.25v2.9c0,.93.13,1.58.4,2.04.36.62,1.07.93,2.1.93h9.27c1.16,0,1.91-.25,2.38-.78.43-.48.64-1.2.64-2.19v-2.95c0-2.98-.48-5.72-1.44-8.16-.96-2.45-2.31-4.56-4.03-6.29-1.71-1.73-3.78-3.09-6.14-4.03-2.36-.94-4.97-1.42-7.78-1.42h0Z"/>
  </g>
  <g>
    <path class="cls-1" d="M223.94,578.77c-1.42,0-2.21-.86-2.21-2.42v-67.74c0-.74.2-1.35.59-1.8.41-.48.97-.72,1.67-.72h18.28c2.71,0,5.27.51,7.6,1.52,2.33,1.01,4.38,2.39,6.09,4.12s3.07,3.78,4.04,6.09c.97,2.32,1.46,4.83,1.46,7.47v7.41c0,1.59-.2,3.08-.59,4.41-.39,1.33-.93,2.57-1.6,3.69-.68,1.12-1.5,2.16-2.44,3.08-.78.76-1.6,1.46-2.47,2.08,2.13,1.97,3.77,4.59,4.87,7.79,1.17,3.4,1.76,7.77,1.76,12.98v9.32c0,.57-.16,1.14-.48,1.7-.26.45-.79.98-1.88.98h-9.53c-.7,0-1.35-.23-1.93-.67-.63-.48-.95-1.2-.95-2.16v-10.82c0-4.87-.87-8.43-2.58-10.59-1.6-2.02-4-3.21-7.14-3.52v25.4c0,1.56-.78,2.42-2.21,2.42h-10.36ZM240.82,539.24c1.92,0,3.39-.49,4.36-1.46s1.46-2.25,1.46-3.89v-8.6c0-1.74-.49-3.09-1.49-4.1-1-1.01-2.3-1.51-3.97-1.51h-4.68v19.56h4.32Z"/>
    <path class="cls-1" d="M242.27,506.59c2.66,0,5.13.49,7.41,1.48,2.28.98,4.25,2.32,5.93,4.01,1.67,1.69,2.99,3.67,3.94,5.93.95,2.26,1.42,4.69,1.42,7.28v7.41c0,1.55-.19,2.98-.57,4.27-.38,1.3-.9,2.49-1.55,3.57-.66,1.09-1.44,2.08-2.36,2.98-.92.9-1.89,1.69-2.93,2.38,2.31,1.97,4.05,4.64,5.21,8,1.16,3.37,1.74,7.64,1.74,12.82v9.32c0,.48-.14.97-.41,1.45-.28.48-.76.73-1.45.73h-9.53c-.59,0-1.13-.19-1.63-.57-.5-.38-.75-.97-.75-1.76v-10.82c0-5.01-.9-8.64-2.69-10.9-1.8-2.26-4.47-3.51-8.03-3.75v25.95c0,1.28-.57,1.92-1.71,1.92h-10.36c-1.14,0-1.71-.64-1.71-1.92v-67.74c0-.62.16-1.11.47-1.48.31-.36.74-.54,1.3-.54h18.28M236.01,539.74h4.82c2.07,0,3.64-.53,4.71-1.61,1.07-1.07,1.6-2.49,1.6-4.25v-8.6c0-1.86-.54-3.35-1.63-4.45-1.09-1.1-2.53-1.66-4.32-1.66h-5.18v20.56M242.27,505.59h-18.28c-.84,0-1.55.31-2.05.89-.47.55-.71,1.27-.71,2.13v67.74c0,1.83,1.01,2.92,2.71,2.92h10.36c1.7,0,2.71-1.09,2.71-2.92v-24.84c2.75.37,4.8,1.45,6.24,3.27,1.64,2.07,2.48,5.53,2.48,10.28v10.82c0,1.4.62,2.16,1.15,2.56.67.51,1.43.77,2.24.77h9.53c1.34,0,2-.67,2.32-1.23.36-.64.55-1.29.55-1.95v-9.32c0-5.26-.6-9.69-1.79-13.14-1.05-3.06-2.58-5.6-4.57-7.58.71-.54,1.4-1.13,2.04-1.77.97-.95,1.81-2.02,2.51-3.17.7-1.16,1.25-2.44,1.66-3.81.41-1.38.61-2.91.61-4.55v-7.41c0-2.71-.51-5.29-1.5-7.66-1-2.37-2.39-4.47-4.15-6.25-1.76-1.78-3.86-3.2-6.24-4.23-2.39-1.03-5.02-1.56-7.8-1.56h0ZM237.01,520.18h4.18c1.53,0,2.71.44,3.61,1.36.9.92,1.34,2.15,1.34,3.75v8.6c0,1.5-.43,2.66-1.31,3.54-.87.87-2.22,1.31-4.01,1.31h-3.82v-18.56h0Z"/>
  </g>
  <g>
    <path class="cls-1" d="M286.35,579.91c-2.64,0-5.19-.48-7.57-1.43-2.38-.95-4.5-2.28-6.32-3.96-1.82-1.68-3.28-3.65-4.33-5.88-1.06-2.23-1.6-4.66-1.6-7.21v-52.83c0-.65.16-1.22.47-1.7.44-.68.99-.82,1.38-.82h10.93c1.02,0,1.48.47,1.69.86.25.47.37,1.03.37,1.66v52.05c0,.77.11,1.51.34,2.2.22.68.56,1.29,1,1.83.44.53.97.96,1.58,1.27.6.31,1.31.46,2.13.46s1.49-.16,2.11-.46c.62-.31,1.15-.73,1.57-1.26.43-.54.76-1.16.98-1.84.22-.69.34-1.43.34-2.2v-52c0-.65.17-1.23.5-1.73.37-.55.94-.84,1.66-.84h10.51c.96,0,1.45.48,1.7.89.3.51.46,1.07.46,1.68v52.77c0,2.55-.55,4.98-1.63,7.21-1.08,2.22-2.53,4.2-4.33,5.87-1.8,1.67-3.92,3.01-6.32,3.96-2.4.95-4.95,1.43-7.59,1.43Z"/>
    <path class="cls-1" d="M304.06,506.59c.59,0,1.01.22,1.27.65.26.43.39.91.39,1.42v52.77c0,2.49-.53,4.82-1.58,6.99-1.05,2.18-2.46,4.08-4.22,5.72-1.76,1.64-3.82,2.93-6.16,3.86-2.35.93-4.82,1.4-7.41,1.4s-5.05-.47-7.38-1.4c-2.33-.93-4.39-2.22-6.16-3.86-1.78-1.64-3.19-3.55-4.22-5.72-1.04-2.18-1.55-4.51-1.55-6.99v-52.83c0-.55.13-1.03.39-1.42.26-.4.58-.6.96-.6h10.93c.62,0,1.04.2,1.24.6.21.4.31.87.31,1.42v52.05c0,.83.12,1.61.36,2.36.24.74.6,1.41,1.09,1.99.48.59,1.06,1.05,1.74,1.4.67.35,1.46.52,2.36.52s1.64-.17,2.33-.52c.69-.34,1.27-.81,1.74-1.4.47-.59.82-1.25,1.06-1.99.24-.74.36-1.53.36-2.36v-52c0-.55.14-1.04.41-1.45.28-.41.69-.62,1.24-.62h10.51M304.06,505.59h-10.51c-.89,0-1.61.37-2.08,1.07-.39.58-.58,1.25-.58,2v52c0,.72-.11,1.41-.31,2.05-.2.62-.5,1.19-.89,1.68-.38.48-.84.84-1.4,1.12-.56.28-1.17.41-1.88.41s-1.37-.14-1.9-.41c-.55-.28-1.03-.67-1.42-1.14-.4-.49-.71-1.05-.91-1.67-.21-.64-.31-1.33-.31-2.05v-52.05c0-.71-.14-1.35-.42-1.89-.22-.42-.79-1.13-2.13-1.13h-10.93c-.72,0-1.35.37-1.8,1.05-.37.56-.55,1.22-.55,1.97v52.83c0,2.63.56,5.12,1.65,7.42,1.09,2.28,2.58,4.31,4.45,6.03,1.86,1.71,4.03,3.08,6.47,4.05,2.44.98,5.05,1.47,7.75,1.47s5.32-.49,7.78-1.47c2.45-.97,4.63-2.34,6.48-4.06,1.84-1.72,3.34-3.74,4.44-6.02,1.11-2.3,1.68-4.8,1.68-7.43v-52.77c0-.7-.18-1.35-.53-1.94-.44-.73-1.19-1.13-2.13-1.13h0Z"/>
  </g>
  <g>
    <path class="cls-1" d="M231.57,660.11c-.6,0-1.09-.21-1.46-.63-.36-.4-.54-.97-.54-1.68v-56.78h-9.13c-.6,0-1.09-.21-1.46-.63-.36-.4-.54-.98-.54-1.73v-8.8c0-.74.18-1.33.53-1.75.37-.44.88-.67,1.47-.67h33.09c.6,0,1.09.21,1.46.63.36.4.54.99.54,1.73v8.86c0,.75-.18,1.33-.54,1.73-.37.42-.86.63-1.46.63h-9.13v56.78c0,.72-.19,1.28-.58,1.69-.39.41-.87.62-1.42.62h-10.82Z"/>
    <path class="cls-1" d="M253.53,587.93c.45,0,.81.15,1.09.47.28.31.41.78.41,1.4v8.86c0,.62-.14,1.09-.41,1.4-.28.31-.64.47-1.09.47h-9.63v57.28c0,.59-.15,1.04-.44,1.35-.29.31-.65.47-1.06.47h-10.82c-.45,0-.81-.16-1.09-.47-.28-.31-.41-.76-.41-1.35v-57.28h-9.63c-.45,0-.81-.16-1.09-.47-.28-.31-.41-.78-.41-1.4v-8.8c0-.62.14-1.1.41-1.42.28-.33.64-.49,1.09-.49h33.09M253.53,586.93h-33.09c-.75,0-1.39.29-1.85.85-.43.51-.65,1.21-.65,2.07v8.8c0,.87.22,1.57.67,2.06.46.52,1.1.8,1.83.8h8.63v56.28c0,.84.22,1.51.67,2.01.47.52,1.1.8,1.83.8h10.82c.69,0,1.3-.27,1.79-.78.48-.51.71-1.19.71-2.04v-56.28h8.63c.73,0,1.37-.28,1.83-.8.44-.5.67-1.19.67-2.06v-8.86c0-.87-.22-1.57-.67-2.06-.47-.52-1.1-.8-1.83-.8h0Z"/>
  </g>
  <g>
    <path class="cls-1" d="M280,661.25c-2.63,0-5.17-.44-7.55-1.3s-4.5-2.11-6.3-3.69c-1.8-1.59-3.26-3.55-4.32-5.81-1.06-2.26-1.6-4.84-1.6-7.67v-37.96c0-2.86.54-5.46,1.6-7.75,1.06-2.28,2.51-4.24,4.32-5.83,1.8-1.59,3.92-2.82,6.3-3.65,2.37-.83,4.91-1.24,7.54-1.24s5.18.42,7.57,1.24c2.4.83,4.53,2.04,6.35,3.62,1.82,1.58,3.29,3.53,4.37,5.81,1.08,2.28,1.63,4.91,1.63,7.8v37.96c0,2.86-.55,5.46-1.63,7.75-1.08,2.28-2.55,4.24-4.37,5.83-1.82,1.59-3.96,2.82-6.35,3.64-2.39.83-4.94,1.25-7.57,1.25ZM280.1,599.77c-.81,0-1.54.16-2.16.47-.62.31-1.15.74-1.57,1.26-.43.54-.77,1.17-1,1.87-.24.7-.36,1.45-.36,2.22v36.46c0,.77.11,1.51.34,2.2.22.68.55,1.29.97,1.81.42.51.94.93,1.55,1.25.6.31,1.31.46,2.13.46s1.56-.14,2.18-.42c.62-.28,1.16-.67,1.59-1.15.44-.48.78-1.06,1.01-1.7.24-.65.36-1.37.36-2.13v-36.77c0-.77-.12-1.51-.36-2.22-.24-.7-.58-1.33-1.01-1.87-.42-.53-.94-.95-1.57-1.26-.62-.31-1.33-.47-2.11-.47Z"/>
    <path class="cls-1" d="M280,586.84c2.59,0,5.06.41,7.41,1.22,2.35.81,4.41,1.99,6.19,3.52,1.78,1.54,3.19,3.42,4.25,5.65,1.05,2.23,1.58,4.76,1.58,7.59v37.96c0,2.8-.53,5.31-1.58,7.53-1.05,2.23-2.47,4.12-4.25,5.67-1.78,1.55-3.84,2.74-6.19,3.55-2.35.81-4.82,1.22-7.41,1.22s-5.05-.42-7.38-1.27c-2.33-.85-4.38-2.05-6.14-3.6-1.76-1.55-3.16-3.43-4.19-5.64-1.04-2.21-1.55-4.7-1.55-7.46v-37.96c0-2.8.52-5.31,1.55-7.54,1.04-2.23,2.43-4.12,4.19-5.67,1.76-1.55,3.81-2.74,6.14-3.55,2.33-.81,4.79-1.22,7.38-1.22M280,648.26c.9,0,1.69-.16,2.38-.47.69-.31,1.28-.73,1.76-1.27.48-.53.85-1.16,1.11-1.86.26-.71.39-1.48.39-2.3v-36.77c0-.83-.13-1.62-.39-2.38-.26-.76-.62-1.43-1.09-2.02-.47-.59-1.04-1.05-1.74-1.4-.69-.34-1.47-.52-2.33-.52s-1.69.17-2.38.52c-.69.35-1.27.81-1.74,1.4-.47.59-.83,1.26-1.09,2.02-.26.76-.39,1.55-.39,2.38v36.46c0,.83.12,1.61.36,2.36.24.74.59,1.4,1.06,1.97.47.57,1.04,1.03,1.71,1.37.67.35,1.46.52,2.36.52M280,585.84c-2.69,0-5.28.43-7.71,1.27-2.44.85-4.62,2.11-6.47,3.74-1.86,1.64-3.35,3.66-4.44,6-1.09,2.35-1.65,5.03-1.65,7.96v37.96c0,2.9.55,5.55,1.65,7.88,1.09,2.32,2.58,4.33,4.44,5.97,1.85,1.63,4.02,2.91,6.46,3.79,2.43.88,5.03,1.33,7.72,1.33s5.29-.43,7.73-1.27c2.46-.85,4.65-2.11,6.52-3.74,1.87-1.64,3.39-3.66,4.49-6,1.11-2.35,1.68-5.03,1.68-7.96v-37.96c0-2.97-.56-5.66-1.68-8.01-1.11-2.34-2.62-4.35-4.5-5.97-1.87-1.61-4.06-2.86-6.52-3.71-2.44-.84-5.05-1.27-7.73-1.27h0ZM280,647.26c-.73,0-1.37-.14-1.9-.41-.55-.28-1.01-.66-1.39-1.12-.39-.47-.68-1.02-.88-1.64-.21-.64-.31-1.33-.31-2.05v-36.46c0-.71.11-1.41.33-2.06.22-.65.53-1.23.92-1.72.38-.48.84-.84,1.4-1.13.55-.27,1.2-.41,1.93-.41s1.33.14,1.88.41c.56.28,1.02.65,1.4,1.13.39.49.7,1.07.93,1.72.22.65.33,1.35.33,2.06v36.77c0,.71-.11,1.37-.33,1.96-.21.58-.52,1.1-.92,1.54-.39.44-.86.77-1.43,1.03-.56.25-1.22.38-1.97.38h0Z"/>
  </g>
  <g>
    <path class="cls-1" d="M325.47,661.25c-2.6,0-5.12-.41-7.49-1.22-2.38-.81-4.5-2.02-6.3-3.59-1.8-1.57-3.27-3.53-4.34-5.81-1.08-2.28-1.63-4.92-1.63-7.85v-37.96c0-2.86.54-5.46,1.6-7.75,1.06-2.28,2.51-4.24,4.32-5.83,1.8-1.59,3.93-2.82,6.33-3.65,2.39-.83,4.94-1.24,7.57-1.24,2.46,0,4.66.31,6.55.93,1.89.62,3.55,1.44,4.95,2.45,1.4,1.01,2.59,2.18,3.53,3.48.93,1.29,1.7,2.64,2.26,4.01.56,1.38.97,2.76,1.2,4.12.23,1.35.34,2.61.34,3.73v4.71c0,.91-.15,1.56-.46,1.98-.34.46-.89.7-1.65.7h-9.79c-.76,0-1.3-.23-1.61-.69-.27-.4-.39-.98-.39-1.78v-4.56c0-.7-.11-1.41-.34-2.1-.22-.68-.56-1.3-1-1.83-.44-.53-.98-.96-1.6-1.27-.62-.31-1.33-.47-2.11-.47-1.51,0-2.69.52-3.58,1.58-.91,1.09-1.36,2.38-1.36,3.92v36.82c0,1.75.47,3.1,1.44,4.14.96,1.03,2.12,1.52,3.55,1.52.76,0,1.46-.14,2.1-.42.64-.28,1.2-.67,1.65-1.15.46-.49.82-1.06,1.09-1.71.27-.64.4-1.35.4-2.11v-9.55h-3.33c-.77,0-2.05-.29-2.05-2.26v-7.87c0-2.01,1.29-2.31,2.05-2.31h14.92c1.52,0,2.36.88,2.36,2.47v19.94c0,2.85-.5,5.45-1.49,7.73-.99,2.28-2.37,4.25-4.11,5.84-1.73,1.59-3.79,2.82-6.12,3.65-2.32.83-4.84,1.25-7.47,1.25Z"/>
    <path class="cls-1" d="M325.53,586.84c2.42,0,4.55.3,6.4.91,1.85.6,3.45,1.4,4.82,2.38,1.36.98,2.5,2.11,3.42,3.37.91,1.26,1.65,2.56,2.2,3.91.55,1.35.94,2.68,1.17,4.01.22,1.33.34,2.55.34,3.65v4.71c0,.79-.12,1.36-.36,1.68-.24.33-.66.49-1.24.49h-9.79c-.59,0-.98-.16-1.19-.47-.21-.31-.31-.81-.31-1.5v-4.56c0-.76-.12-1.51-.36-2.25-.24-.74-.6-1.41-1.09-1.99-.48-.59-1.07-1.05-1.76-1.4-.69-.34-1.47-.52-2.33-.52-1.66,0-2.98.59-3.96,1.76-.98,1.17-1.48,2.59-1.48,4.25v36.82c0,1.86.53,3.36,1.58,4.48,1.05,1.12,2.36,1.68,3.91,1.68.83,0,1.6-.16,2.3-.47.71-.31,1.31-.73,1.81-1.27.5-.53.9-1.16,1.19-1.86.29-.71.44-1.48.44-2.3v-10.05h-3.83c-1.04,0-1.55-.59-1.55-1.76v-7.87c0-1.21.52-1.81,1.55-1.81h14.92c1.24,0,1.86.66,1.86,1.97v19.94c0,2.8-.48,5.31-1.45,7.53-.97,2.23-2.3,4.12-3.99,5.67-1.69,1.55-3.68,2.74-5.96,3.55-2.28.81-4.71,1.22-7.3,1.22s-5-.4-7.33-1.19c-2.33-.79-4.38-1.96-6.14-3.5-1.76-1.54-3.17-3.42-4.22-5.65-1.05-2.23-1.58-4.77-1.58-7.64v-37.96c0-2.8.52-5.31,1.55-7.54,1.04-2.23,2.43-4.12,4.19-5.67,1.76-1.55,3.81-2.74,6.16-3.55,2.35-.81,4.82-1.22,7.41-1.22M325.53,585.84c-2.69,0-5.29.43-7.73,1.27-2.46.85-4.65,2.11-6.5,3.74-1.86,1.64-3.35,3.66-4.44,6-1.09,2.35-1.65,5.03-1.65,7.96v37.96c0,3,.56,5.72,1.68,8.07,1.11,2.34,2.61,4.35,4.47,5.97,1.85,1.62,4.03,2.86,6.47,3.69,2.43.83,5,1.24,7.65,1.24s5.26-.43,7.64-1.28c2.39-.85,4.51-2.11,6.3-3.75,1.79-1.64,3.21-3.66,4.23-6.01,1.02-2.34,1.53-5.01,1.53-7.93v-19.94c0-1.86-1.07-2.97-2.86-2.97h-14.92c-1.6,0-2.55,1.05-2.55,2.81v7.87c0,1.73.95,2.76,2.55,2.76h2.83v9.05c0,.69-.12,1.34-.36,1.92-.25.59-.58,1.12-1,1.56-.4.43-.9.78-1.48,1.04-.58.25-1.22.38-1.9.38-1.28,0-2.32-.45-3.18-1.37-.88-.94-1.31-2.18-1.31-3.8v-36.82c0-1.43.41-2.61,1.24-3.6.79-.94,1.84-1.4,3.2-1.4.7,0,1.33.14,1.88.41.57.28,1.04.66,1.44,1.14.4.49.71,1.05.91,1.67.21.64.31,1.29.31,1.94v4.56c0,.9.16,1.57.48,2.06.28.42.85.91,2.02.91h9.79c1.15,0,1.75-.49,2.05-.9.37-.51.56-1.25.56-2.28v-4.71c0-1.15-.12-2.44-.35-3.82-.24-1.4-.65-2.82-1.23-4.23-.58-1.41-1.36-2.8-2.32-4.12-.97-1.34-2.2-2.55-3.64-3.59-1.44-1.04-3.15-1.89-5.09-2.52-1.94-.63-4.2-.96-6.71-.96h0Z"/>
  </g>
  <g>
    <path class="cls-1" d="M355.26,660.11c-1.46,0-2.26-.88-2.26-2.47v-67.69c0-.74.2-1.34.58-1.8.41-.48.97-.72,1.68-.72h30.97c.73,0,1.95.31,1.95,2.42v8.8c0,2.06-1.22,2.36-1.95,2.36h-18.46v15.62h14.62c.57,0,1.07.18,1.49.53.45.38.67.98.67,1.78v8.86c0,.77-.21,1.35-.63,1.72-.4.36-.91.54-1.52.54h-14.62v16.56h18.71c.55,0,1.03.2,1.42.58.39.39.59.95.59,1.67v8.91c0,.76-.2,1.34-.59,1.73s-.87.59-1.42.59h-31.23Z"/>
    <path class="cls-1" d="M386.23,587.93c.97,0,1.45.64,1.45,1.92v8.8c0,1.24-.48,1.86-1.45,1.86h-18.96v16.62h15.12c.45,0,.84.14,1.17.41.33.28.49.74.49,1.4v8.86c0,.62-.16,1.07-.47,1.35-.31.28-.71.41-1.19.41h-15.12v17.56h19.21c.41,0,.77.15,1.06.44.29.29.44.73.44,1.32v8.91c0,.62-.15,1.08-.44,1.37-.29.29-.65.44-1.06.44h-31.23c-1.17,0-1.76-.66-1.76-1.97v-67.69c0-.62.16-1.11.47-1.48.31-.36.74-.54,1.29-.54h30.97M386.23,586.93h-30.97c-.84,0-1.55.31-2.05.89-.47.55-.71,1.27-.71,2.13v67.69c0,1.86,1.03,2.97,2.76,2.97h31.23c.68,0,1.29-.25,1.77-.73.49-.49.73-1.19.73-2.08v-8.91c0-.86-.25-1.54-.73-2.03-.48-.48-1.09-.73-1.77-.73h-18.21v-15.56h14.12c.74,0,1.36-.22,1.86-.67.53-.47.8-1.17.8-2.09v-8.86c0-.96-.28-1.69-.85-2.16-.51-.43-1.12-.65-1.81-.65h-14.12v-14.62h17.96c.57,0,2.45-.21,2.45-2.86v-8.8c0-2.71-1.88-2.92-2.45-2.92h0Z"/>
  </g>
  <g>
    <path class="cls-1" d="M407.43,660.11c-.6,0-1.09-.21-1.46-.63-.36-.4-.54-.97-.54-1.68v-56.78h-9.13c-.6,0-1.09-.21-1.46-.63-.36-.4-.54-.98-.54-1.73v-8.8c0-.74.18-1.33.53-1.75.37-.44.88-.67,1.47-.67h33.09c.6,0,1.09.21,1.46.63.36.4.54.99.54,1.73v8.86c0,.75-.18,1.33-.54,1.73-.37.42-.86.63-1.46.63h-9.13v56.78c0,.72-.19,1.28-.58,1.69-.39.41-.87.62-1.42.62h-10.82Z"/>
    <path class="cls-1" d="M429.38,587.93c.45,0,.81.15,1.09.47.28.31.41.78.41,1.4v8.86c0,.62-.14,1.09-.41,1.4-.28.31-.64.47-1.09.47h-9.63v57.28c0,.59-.15,1.04-.44,1.35-.29.31-.65.47-1.06.47h-10.82c-.45,0-.81-.16-1.09-.47-.28-.31-.41-.76-.41-1.35v-57.28h-9.63c-.45,0-.81-.16-1.09-.47-.28-.31-.41-.78-.41-1.4v-8.8c0-.62.14-1.1.41-1.42.28-.33.64-.49,1.09-.49h33.09M429.38,586.93h-33.09c-.75,0-1.39.29-1.85.85-.43.51-.65,1.21-.65,2.07v8.8c0,.87.22,1.57.67,2.06.46.52,1.1.8,1.83.8h8.63v56.28c0,.84.22,1.51.67,2.01.47.52,1.1.8,1.84.8h10.82c.69,0,1.3-.27,1.79-.78.48-.51.71-1.19.71-2.04v-56.28h8.63c.73,0,1.37-.28,1.83-.8.44-.5.67-1.19.67-2.06v-8.86c0-.87-.22-1.57-.67-2.06-.47-.52-1.1-.8-1.83-.8h0Z"/>
  </g>
  <g>
    <path class="cls-1" d="M463.05,660.11c-1.46,0-2.26-.88-2.26-2.47v-27.98h-10.39v27.98c0,2.15-1.38,2.47-2.21,2.47h-10.36c-.83,0-2.21-.32-2.21-2.47v-67.69c0-.73.17-1.33.52-1.78.37-.49.94-.74,1.69-.74h10.36c.75,0,1.32.25,1.69.74.34.45.52,1.05.52,1.78v26.22h10.39v-26.22c0-.66.18-1.24.54-1.72.27-.36.79-.8,1.72-.8h10.31c.56,0,1.07.18,1.5.52.47.38.71,1.03.71,1.94v67.74c0,.73-.18,1.33-.52,1.76-.38.47-1,.71-1.84.71h-10.15Z"/>
    <path class="cls-1" d="M473.36,587.93c.45,0,.85.14,1.19.41.34.28.52.79.52,1.55v67.74c0,.62-.14,1.11-.41,1.45-.28.35-.76.52-1.45.52h-10.15c-1.17,0-1.76-.66-1.76-1.97v-28.48h-11.39v28.48c0,1.31-.57,1.97-1.71,1.97h-10.36c-1.14,0-1.71-.66-1.71-1.97v-67.69c0-.62.14-1.11.41-1.48.28-.36.71-.54,1.29-.54h10.36c.59,0,1.02.18,1.29.54.28.36.41.85.41,1.48v26.72h11.39v-26.72c0-.55.15-1.03.44-1.42.29-.4.73-.6,1.32-.6h10.31M473.36,586.93h-10.31c-1.15,0-1.79.54-2.12,1-.42.57-.64,1.25-.64,2.02v25.72h-9.39v-25.72c0-.84-.21-1.54-.62-2.08-.33-.43-.96-.94-2.09-.94h-10.36c-1.14,0-1.76.51-2.09.94-.41.54-.62,1.24-.62,2.08v67.69c0,1.86,1.01,2.97,2.71,2.97h10.36c1.7,0,2.71-1.11,2.71-2.97v-27.48h9.39v27.48c0,1.86,1.03,2.97,2.76,2.97h10.15c1.01,0,1.76-.3,2.23-.89.42-.52.63-1.22.63-2.08v-67.74c0-1.07-.3-1.86-.89-2.33-.53-.42-1.14-.63-1.82-.63h0Z"/>
  </g>
  <g>
    <path class="cls-1" d="M485.1,660.11c-1.46,0-2.26-.88-2.26-2.47v-67.69c0-.74.2-1.34.58-1.8.41-.48.97-.72,1.68-.72h30.97c.73,0,1.95.31,1.95,2.42v8.8c0,2.06-1.22,2.36-1.95,2.36h-18.46v15.62h14.62c.57,0,1.07.18,1.49.53.45.38.67.98.67,1.78v8.86c0,.77-.21,1.35-.63,1.72-.4.36-.91.54-1.52.54h-14.62v16.56h18.71c.55,0,1.03.2,1.42.58.39.39.59.95.59,1.67v8.91c0,.76-.2,1.34-.59,1.73s-.87.59-1.42.59h-31.23Z"/>
    <path class="cls-1" d="M516.07,587.93c.97,0,1.45.64,1.45,1.92v8.8c0,1.24-.48,1.86-1.45,1.86h-18.96v16.62h15.12c.45,0,.84.14,1.17.41.33.28.49.74.49,1.4v8.86c0,.62-.15,1.07-.47,1.35-.31.28-.71.41-1.19.41h-15.12v17.56h19.21c.41,0,.77.15,1.06.44.29.29.44.73.44,1.32v8.91c0,.62-.15,1.08-.44,1.37-.29.29-.65.44-1.06.44h-31.23c-1.17,0-1.76-.66-1.76-1.97v-67.69c0-.62.16-1.11.47-1.48.31-.36.74-.54,1.3-.54h30.97M516.07,586.93h-30.97c-.84,0-1.55.31-2.05.89-.47.55-.71,1.27-.71,2.13v67.69c0,1.86,1.03,2.97,2.76,2.97h31.23c.68,0,1.29-.25,1.77-.73.49-.49.73-1.19.73-2.08v-8.91c0-.86-.25-1.54-.73-2.03-.48-.48-1.09-.73-1.77-.73h-18.21v-15.56h14.12c.74,0,1.36-.22,1.86-.67.53-.47.8-1.17.8-2.09v-8.86c0-.96-.28-1.69-.85-2.16-.51-.43-1.12-.65-1.81-.65h-14.12v-14.62h17.96c.57,0,2.45-.21,2.45-2.86v-8.8c0-2.71-1.88-2.92-2.45-2.92h0Z"/>
  </g>
  <g>
    <path class="cls-1" d="M526.07,660.11c-1.42,0-2.21-.86-2.21-2.42v-67.74c0-.74.2-1.34.58-1.8.41-.48.97-.72,1.68-.72h18.28c2.71,0,5.27.51,7.6,1.52,2.33,1,4.38,2.39,6.09,4.12,1.71,1.73,3.07,3.78,4.04,6.09.97,2.31,1.46,4.83,1.46,7.47v7.41c0,1.59-.2,3.08-.59,4.41-.39,1.33-.93,2.57-1.6,3.69-.68,1.12-1.5,2.16-2.43,3.08-.78.76-1.6,1.46-2.47,2.08,2.13,1.97,3.77,4.59,4.87,7.79,1.17,3.4,1.76,7.77,1.76,12.98v9.32c0,.57-.16,1.14-.48,1.7-.26.45-.79.98-1.88.98h-9.53c-.7,0-1.35-.23-1.93-.67-.63-.48-.95-1.2-.95-2.16v-10.83c0-4.87-.87-8.43-2.58-10.59-1.61-2.02-4.01-3.21-7.14-3.52v25.4c0,1.56-.78,2.42-2.21,2.42h-10.36ZM542.95,620.58c1.92,0,3.39-.49,4.36-1.46.98-.98,1.46-2.25,1.46-3.89v-8.6c0-1.74-.49-3.09-1.49-4.1-1-1.01-2.3-1.51-3.97-1.51h-4.68v19.56h4.32Z"/>
    <path class="cls-1" d="M544.4,587.93c2.66,0,5.13.49,7.41,1.48,2.28.98,4.25,2.32,5.93,4.01,1.67,1.69,2.99,3.67,3.94,5.93.95,2.26,1.42,4.69,1.42,7.28v7.41c0,1.55-.19,2.98-.57,4.27-.38,1.3-.9,2.49-1.55,3.57-.66,1.09-1.44,2.08-2.36,2.98-.92.9-1.89,1.69-2.93,2.38,2.31,1.97,4.05,4.63,5.21,8,1.16,3.37,1.73,7.64,1.73,12.82v9.32c0,.48-.14.97-.41,1.45-.28.48-.76.73-1.45.73h-9.53c-.59,0-1.13-.19-1.63-.57-.5-.38-.75-.97-.75-1.76v-10.82c0-5.01-.9-8.64-2.69-10.9-1.8-2.26-4.47-3.51-8.03-3.75v25.95c0,1.28-.57,1.92-1.71,1.92h-10.36c-1.14,0-1.71-.64-1.71-1.92v-67.74c0-.62.16-1.11.47-1.48.31-.36.74-.54,1.29-.54h18.28M538.13,621.07h4.82c2.07,0,3.64-.53,4.71-1.61,1.07-1.07,1.61-2.49,1.61-4.25v-8.6c0-1.86-.54-3.35-1.63-4.45-1.09-1.1-2.53-1.66-4.32-1.66h-5.18v20.56M544.4,586.93h-18.28c-.84,0-1.55.31-2.05.89-.47.55-.71,1.27-.71,2.13v67.74c0,1.83,1.01,2.92,2.71,2.92h10.36c1.7,0,2.71-1.09,2.71-2.92v-24.84c2.75.37,4.8,1.45,6.24,3.27,1.64,2.07,2.48,5.53,2.48,10.28v10.82c0,1.4.62,2.16,1.15,2.56.67.51,1.43.77,2.24.77h9.53c1.33,0,2-.67,2.32-1.23.36-.64.55-1.29.55-1.95v-9.32c0-5.26-.6-9.69-1.79-13.14-1.05-3.06-2.59-5.6-4.57-7.58.71-.54,1.4-1.13,2.04-1.77.97-.95,1.81-2.02,2.51-3.17.7-1.16,1.26-2.44,1.66-3.81.41-1.38.61-2.91.61-4.55v-7.41c0-2.71-.51-5.29-1.5-7.66-1-2.37-2.39-4.47-4.15-6.25-1.76-1.78-3.86-3.2-6.24-4.23-2.39-1.03-5.02-1.56-7.8-1.56h0ZM539.13,601.51h4.18c1.53,0,2.71.44,3.61,1.36.9.92,1.34,2.15,1.34,3.75v8.6c0,1.5-.43,2.66-1.31,3.54-.87.87-2.22,1.31-4.01,1.31h-3.82v-18.56h0Z"/>
  </g>
  <path class="cls-1" d="M526.47,506.76c1.12.77,1.57,1.71,2.12,2.84,3.74,7.71,4.83,17.68,8.86,25.45l9.01-27.71c2.48-.77,14.59-1.58,15.08,1l-16.68,41.46v27.7l-1.07.8-14.41.1v-26.79l-17.28-41.69c-.48-.81-.02-3.16.83-3.16h13.55Z"/>
  <path class="cls-1" d="M344.31,547.29v-40.37c.87-1.48,12-2.16,12.75.6l-.18,69.95c-1.09,1.53-11.07,2.12-12.19-.68l-20.36-42.07-.11,42.54c-.95,1.9-11.58,1.91-12.79.21l.64-71.08c1.44-1.04,11.13-1.14,12.92.71l19.33,40.19Z"/>
  <g>
    <path class="cls-1" d="M411.49,578.34c-.39,0-.74-.27-.82-.64l-3.12-14.68h-14.3l-3.12,14.68c-.08.37-.42.65-.82.65h-10.39c-.26,0-.5-.12-.66-.32-.15-.19-.21-.44-.15-.68l17.13-70.68c.09-.37.42-.62.81-.62h8.71c.39,0,.72.26.81.63l17.13,70.67c.06.24,0,.49-.15.68-.16.2-.4.32-.66.32h-10.4ZM405.27,552.4l-4.93-23.42-4.93,23.42h9.86Z"/>
    <path class="cls-1" d="M404.75,506.54c.16,0,.29.1.33.24l17.13,70.68c.05.19-.11.38-.33.38h-10.4c-.16,0-.3-.11-.33-.25l-3.15-14.82c-.03-.15-.17-.25-.33-.25h-14.56c-.16,0-.3.1-.33.25l-3.15,14.82c-.03.15-.17.25-.33.25h-10.39c-.21,0-.37-.19-.33-.38l17.13-70.68c.03-.14.17-.24.33-.24h8.71M394.8,552.9h11.09l-5.44-25.84h-.22l-5.44,25.84M404.75,505.54h-8.71c-.62,0-1.16.41-1.3,1.01l-17.13,70.68c-.09.39,0,.79.24,1.11.25.32.64.51,1.06.51h10.39c.63,0,1.18-.44,1.31-1.04l3.04-14.28h13.49l3.04,14.28c.13.6.68,1.04,1.31,1.04h10.4c.42,0,.8-.19,1.06-.51.25-.32.34-.72.24-1.11l-17.13-70.68c-.15-.59-.68-1.01-1.3-1.01h0ZM396.03,551.9l4.31-20.5,4.31,20.5h-8.62Z"/>
  </g>
  <path class="cls-1" d="M429.18,506.64l7.35,43.42,8.37-43.46,11.67.45c3.42,13.41,4.3,27.93,7.6,41.3.29,1.18-.69,2.04,1.42,1.7l7.36-43.41h11.2c.2,0,1.74,1.42,1.43,2.14l-13.12,68.09c-.93,1.77-8.57,1.44-10.76,1.23-1.74-.17-2.94,0-3.65-1.95l-7.52-41.51-7.72,42-1.02,1.08c-2.35.31-11.79,1.04-12.97-.35l-12.94-70.73h13.3Z"/>
  <g>
    <path class="cls-1" d="M510.74,578.07c-.39,0-.74-.27-.82-.65l-3.12-14.68h-14.3l-3.12,14.67c-.08.38-.42.65-.82.65h-10.39c-.26,0-.5-.12-.66-.32-.15-.19-.21-.44-.15-.68l17.13-70.68c.09-.37.42-.62.81-.62h8.71c.39,0,.72.26.81.62l17.13,70.68c.06.24,0,.48-.15.68-.16.2-.4.32-.66.32h-10.4ZM504.53,552.13l-4.93-23.42-4.93,23.42h9.86Z"/>
    <path class="cls-1" d="M504.01,506.27c.16,0,.29.1.33.24l17.13,70.68c.05.19-.11.38-.33.38h-10.4c-.16,0-.3-.11-.33-.25l-3.15-14.82c-.03-.15-.17-.25-.33-.25h-14.56c-.16,0-.3.11-.33.25l-3.15,14.82c-.03.15-.17.25-.33.25h-10.39c-.21,0-.37-.19-.33-.38l17.13-70.68c.03-.14.17-.24.33-.24h8.71M494.05,552.63h11.09l-5.44-25.84h-.22l-5.44,25.84M504.01,505.27h-8.71c-.62,0-1.15.41-1.3,1.01l-17.13,70.68c-.09.39,0,.79.24,1.11.25.32.64.51,1.06.51h10.39c.63,0,1.18-.44,1.31-1.04l3.04-14.28h13.49l3.04,14.28c.13.6.68,1.04,1.31,1.04h10.4c.42,0,.8-.19,1.06-.51.25-.31.34-.72.24-1.11l-17.14-70.68c-.14-.59-.68-1.01-1.3-1.01h0ZM495.29,551.63l4.31-20.5,4.31,20.5h-8.62Z"/>
  </g>
  <path class="cls-1" d="M430.92,425.14c4.15-4.58,11.53-1.38,11.98,4.52.4,5.16-4.78,19.71-12.13,14.78.97-1.7,4.06-7.8,2.95-9.36-.33-.47-1.71-.57-2.46-1.29-1.97-1.89-2.18-6.63-.34-8.66Z"/>
</svg>